<svg width="20" height="16" viewBox="0 0 20 16" fill="none" xmlns="http://www.w3.org/2000/svg">
<path d="M19.7479 7.99978C19.7479 8.41378 19.4119 8.74978 18.9979 8.74978H2.80895L8.52892 14.4698C8.82192 14.7628 8.82192 15.2378 8.52892 15.5308C8.38292 15.6768 8.19089 15.7508 7.99889 15.7508C7.80689 15.7508 7.61487 15.6778 7.46887 15.5308L0.468865 8.53079C0.399865 8.46179 0.345 8.37889 0.307 8.28689C0.231 8.10389 0.231 7.89689 0.307 7.71389C0.345 7.62189 0.399865 7.53875 0.468865 7.46975L7.46887 0.46975C7.76187 0.17675 8.2369 0.17675 8.5299 0.46975C8.8229 0.76275 8.8229 1.23779 8.5299 1.53079L2.80993 7.25076H18.9979C19.4119 7.24976 19.7479 7.58578 19.7479 7.99978Z" fill="#25314C"/>
</svg>
