<svg width="20" height="20" viewBox="0 0 20 20" fill="none" xmlns="http://www.w3.org/2000/svg">
<path d="M12.3778 18.378C11.8768 19.237 10.9878 19.75 9.99978 19.75C9.01178 19.75 8.12379 19.237 7.62179 18.378C7.41379 18.021 7.53381 17.561 7.89181 17.353C8.24881 17.144 8.70781 17.265 8.91781 17.623C9.37681 18.41 10.6228 18.41 11.0817 17.623C11.2907 17.265 11.7508 17.144 12.1078 17.353C12.4658 17.561 12.5858 18.021 12.3778 18.378ZM16.7498 10.5V8C16.7498 7.586 16.4138 7.25 15.9998 7.25C15.5858 7.25 15.2498 7.586 15.2498 8V10.5C15.2498 12.437 15.9978 14.158 16.6148 15.25H7.99978C7.58578 15.25 7.24978 15.586 7.24978 16C7.24978 16.414 7.58578 16.75 7.99978 16.75H17.9998C18.2878 16.75 18.5508 16.585 18.6758 16.325C18.8008 16.065 18.7658 15.757 18.5858 15.531C18.5668 15.509 16.7498 13.206 16.7498 10.5ZM19.5298 1.53L4.52981 16.53L1.52981 19.53C1.38381 19.676 1.19178 19.75 0.999779 19.75C0.807779 19.75 0.61575 19.677 0.46975 19.53C0.17675 19.237 0.17675 18.762 0.46975 18.469L2.18978 16.749H1.99978C1.71178 16.749 1.44979 16.584 1.32479 16.324C1.19979 16.065 1.2338 15.757 1.4128 15.531C1.4318 15.508 3.2488 13.188 3.2488 10.499V7C3.2488 3.278 6.2768 0.25 9.9988 0.25C12.2898 0.25 14.4038 1.421 15.6398 3.299L18.4688 0.470001C18.7618 0.177001 19.2368 0.177001 19.5298 0.470001C19.8228 0.763001 19.8228 1.237 19.5298 1.53ZM14.5448 4.395C13.6158 2.778 11.8888 1.75 9.99978 1.75C7.10478 1.75 4.74978 4.105 4.74978 7V10.5C4.74978 12.437 4.00179 14.158 3.38479 15.25H3.68881L14.5448 4.395Z" fill="#25314C"/>
</svg>
