<svg width="51" height="50" viewBox="0 0 51 50" fill="none" xmlns="http://www.w3.org/2000/svg">
<g clip-path="url(#clip0_2884_50294)">
<path d="M13.0893 45.344C10.5486 45.344 8.00779 45.344 5.46702 45.3312C5.1418 45.3312 5.0524 45.4295 5.05633 45.7498C5.07205 47.0044 5.05633 48.2581 5.0691 49.5128C5.0691 49.8233 4.99148 49.948 4.66037 49.9353C4.02567 49.9117 3.389 49.9019 2.75528 49.9353C2.3328 49.9589 2.24831 49.8036 2.24929 49.4096C2.26206 45.1102 2.24929 40.8097 2.27189 36.5102C2.27189 35.9718 2.13335 35.7684 1.60083 35.736C0.913076 35.6948 0.520071 35.2035 0.188965 34.6621V8.44284C0.610462 7.91622 1.03982 7.42693 1.81207 7.4397C2.77985 7.4564 3.55014 8.15497 3.61007 9.12765C3.62088 9.30549 3.61596 9.48529 3.61596 9.66509C3.61596 16.994 3.61236 24.3232 3.60516 31.6527C3.60516 32.1174 3.7152 32.255 4.19466 32.2501C7.15792 32.2186 10.1222 32.2196 13.0864 32.2098C13.0968 32.2201 13.1048 32.2327 13.1098 32.2465C13.1147 32.2603 13.1165 32.2751 13.115 32.2897C13.1135 32.3043 13.1087 32.3184 13.1011 32.3309C13.0934 32.3434 13.083 32.3541 13.0707 32.3621C12.5028 32.5714 11.9133 32.4495 11.3336 32.4603C10.2322 32.4849 10.3275 32.3847 10.3226 33.4556C10.3226 33.9763 10.3177 34.4961 10.3226 35.0168C10.3275 35.5376 10.3727 35.5769 10.8777 35.5857C11.4132 35.5945 11.9506 35.5857 12.4861 35.5857C12.6963 35.5857 12.9125 35.57 13.0962 35.7105C13.1056 35.7226 13.1126 35.7365 13.1166 35.7513C13.1207 35.7661 13.1218 35.7816 13.1199 35.7968C13.118 35.812 13.1131 35.8267 13.1055 35.8401C13.0979 35.8534 13.0877 35.8651 13.0756 35.8746C12.8388 36.0249 12.5716 35.9875 12.3141 35.9875C10.1939 35.9875 8.0746 35.9875 5.95532 35.9875C5.26167 35.9875 5.243 36.0092 5.24006 36.6979C5.23023 39.0461 5.25676 41.3933 5.22728 43.7405C5.24988 44.0491 5.23318 44.3585 5.24399 44.667C5.25185 44.9254 5.37957 45.0502 5.63699 45.0601C5.7991 45.0659 5.96122 45.0679 6.12825 45.0679C8.22591 45.0679 10.3226 45.061 12.4163 45.0777C12.6492 45.0876 12.9881 44.9441 13.0893 45.344Z" fill="#FECF70"/>
<path d="M20.0447 23.136C20.423 23.0771 20.8111 23.2058 21.1854 23.0751C21.6492 22.8737 22.1355 23.0044 22.6111 22.9769C22.9156 22.9582 23.2212 22.968 23.5268 22.9769C25.1892 22.9444 26.8526 22.966 28.515 22.966C28.7115 22.966 28.908 22.9572 29.0652 23.1144L34.5437 23.1311C36.264 23.1311 37.1719 24.038 37.1758 25.7505C37.1797 27.9035 37.1843 30.0558 37.1896 32.2075C37.2249 32.2588 37.2546 32.3139 37.278 32.3716C37.3762 33.4799 37.3124 34.5911 37.3163 35.7014C37.3163 35.7633 37.3163 35.8252 37.3163 35.887C37.3419 37.3343 37.3251 38.7805 37.3251 40.2278C37.3314 40.3744 37.308 40.5208 37.2564 40.6581C37.1846 40.8114 37.0402 40.8546 36.8948 40.8546C35.9781 40.8782 35.1459 40.6414 34.4385 40.0411C33.0463 39.3357 31.6305 39.371 30.2589 40.0411C29.2528 40.5324 28.2379 40.8438 27.1149 40.7583C27.071 40.785 27.0254 40.8087 26.9783 40.8291C26.5067 40.8939 26.0685 40.7485 25.6677 40.5412C24.9187 40.1517 24.1244 39.8566 23.3027 39.6628C23.2576 39.6393 23.2124 39.6147 23.1691 39.5872C22.2323 39.4835 21.2858 39.6636 20.4525 40.104C19.7765 40.4567 19.0829 40.7593 18.2969 40.7416C18.1171 40.5579 18.1426 40.3211 18.1426 40.0961C18.1387 35.3251 18.1387 30.5536 18.1426 25.7819C18.1409 25.6177 18.1508 25.4535 18.1721 25.2907C18.3273 24.1156 18.909 23.4475 20.0447 23.136Z" fill="#FE7266"/>
<path d="M37.1905 35.853L37.1836 35.7547C37.3801 35.5641 37.6346 35.5946 37.8714 35.5926C38.8637 35.5877 39.8561 35.5926 40.8474 35.5926C41.3642 35.5877 41.4104 35.5415 41.4163 35.0375C41.4241 34.3701 41.4241 33.7033 41.4163 33.0371C41.4104 32.5321 41.3652 32.4859 40.8484 32.482C39.856 32.4732 38.8647 32.482 37.8724 32.482C37.6316 32.482 37.3811 32.5105 37.1797 32.3209L37.1856 32.2226C40.1685 32.2334 43.1524 32.2334 46.1363 32.2658C46.5833 32.2658 46.6698 32.1293 46.6688 31.7127C46.6563 24.2928 46.6521 16.8732 46.656 9.4539C46.656 8.87226 46.7985 8.36331 47.2141 7.9428C47.7328 7.4201 48.3685 7.32971 49.0199 7.55569C49.7028 7.79248 50.1007 8.31517 50.1763 9.05304C50.1901 9.19845 50.1832 9.34779 50.1832 9.4932C50.1832 17.5157 50.1832 25.5396 50.1832 33.5647C50.1832 34.8901 49.6615 35.5366 48.3548 35.7754C47.9686 35.8461 48.0168 36.0937 48.0168 36.3521C48.0168 40.6575 48.0168 44.9625 48.0168 49.2672C48.0168 50.0414 48.0993 49.9402 47.3408 49.9461C46.7867 49.951 46.2316 49.9265 45.6784 49.955C45.3188 49.9727 45.196 49.8725 45.2039 49.4962C45.2265 48.2896 45.197 47.0821 45.2206 45.8756C45.2284 45.4875 45.1469 45.3421 44.7195 45.346C42.2082 45.3696 39.6969 45.3608 37.1856 45.3637C37.1797 45.0807 37.4165 45.1358 37.5668 45.1132C37.8417 45.0866 38.1183 45.0807 38.3941 45.0955C40.3768 45.0955 42.3585 45.0955 44.3402 45.0955C44.9995 45.0955 45.028 45.0572 45.0378 44.4126C45.0378 44.2014 45.0378 43.9902 45.0486 43.7799C45.0201 41.4671 45.0437 39.1533 45.0359 36.8404C45.0359 36.019 45.0358 36.0181 44.1919 36.0181C42.107 36.0181 40.0221 36.0181 37.9362 36.0181C37.6837 35.9935 37.4135 36.0407 37.1905 35.853Z" fill="#FECF70"/>
<path d="M20.0445 23.1357C19.4727 23.4707 18.8655 23.7507 18.5649 24.4129C18.3794 24.8309 18.2866 25.2841 18.2927 25.7413C18.2927 30.7423 18.2927 35.7426 18.2927 40.7423C17.4438 40.8739 16.6431 40.6853 15.863 40.3679C15.8482 40.3679 15.8296 40.3837 15.8168 40.3787C14.9356 40.0478 14.0304 39.7851 13.109 39.5927C13.0628 39.5839 13.0441 39.5249 13.0186 39.4837C12.881 38.3469 12.9498 37.2092 12.9793 36.0714C12.9884 35.9895 13.0248 35.9131 13.0825 35.8543C13.0917 35.8222 13.0917 35.7881 13.0825 35.756C13.0396 35.707 13.0093 35.6484 12.994 35.5851C12.9115 34.5505 12.9115 33.511 12.994 32.4764C13.0096 32.413 13.0403 32.3544 13.0834 32.3055C13.0931 32.2734 13.0931 32.2392 13.0834 32.2072C13.0893 30.025 13.1414 27.8419 13.0834 25.6607C13.0441 24.1005 14.2399 23.061 15.6448 23.1111C17.1117 23.1661 18.5786 23.1317 20.0445 23.1357Z" fill="#E43045"/>
<path d="M29.065 23.1149L23.4745 23.106C23.1463 22.7366 23.1237 22.2601 23.0933 21.818C22.9763 20.1742 22.8535 18.4892 23.5668 16.9614C24.1721 15.6665 23.9598 14.3528 24.0139 13.0373C24.0296 12.6836 23.8174 12.6059 23.5138 12.602C23.1856 12.602 23.0392 12.7317 23.0402 13.0638C23.0402 13.8449 23.053 14.627 23.0333 15.4081C23.0284 15.6134 23.1109 15.8826 22.8044 15.9799C22.8044 14.9433 22.8309 13.9058 22.7946 12.8702C22.7788 12.4212 22.9282 12.3082 23.3418 12.3495C23.6778 12.3819 24.0207 12.3495 24.3597 12.3495C24.6056 12.2376 24.8726 12.1797 25.1428 12.1797C25.4129 12.1797 25.6799 12.2376 25.9258 12.3495C26.3002 12.3554 26.6765 12.3878 27.0488 12.3603C27.3917 12.3348 27.4586 12.4802 27.4546 12.7828C27.4409 13.728 27.4546 14.6731 27.4487 15.6183C27.4487 15.8148 27.4556 15.9868 27.6609 16.1184C29.9207 17.5716 30.5761 20.7205 29.0885 23.0648C29.0794 23.0809 29.0715 23.0976 29.065 23.1149Z" fill="#66486B"/>
<path d="M13.1188 39.5566C14.089 39.578 15.0363 39.8563 15.8639 40.3633C15.8639 43.3796 15.8472 46.3949 15.8639 49.4112C15.8639 49.8484 15.7539 49.9663 15.3274 49.9388C14.7085 49.9069 14.0884 49.9069 13.4695 49.9388C13.1571 49.9516 13.0922 49.8406 13.0942 49.5517C13.104 48.1507 13.0942 46.7486 13.0873 45.3466C12.9527 45.1638 12.7572 45.2483 12.5961 45.2483C10.2587 45.2424 7.92127 45.2356 5.58486 45.2483C5.19186 45.2483 5.01992 45.1501 5.06315 44.7374C5.09754 44.4161 5.07887 44.089 5.0828 43.7647C5.31762 43.5682 5.60353 43.6085 5.87569 43.6075C7.98808 43.6075 10.1005 43.6075 12.2129 43.6075C12.936 43.6075 12.9468 43.5957 12.9488 42.8746C12.9488 41.9972 12.9488 41.1198 12.9488 40.2424C12.9527 40.0037 12.9095 39.7472 13.1188 39.5566Z" fill="#EE9E00"/>
<path d="M45.1971 43.7667C45.2609 45.2405 45.2609 45.2405 43.8216 45.2405C41.7769 45.2405 39.7314 45.2405 37.6868 45.2405C37.5207 45.2405 37.3252 45.156 37.1955 45.3387C37.1955 46.7221 37.1768 48.1065 37.1896 49.4899C37.1896 49.817 37.1287 49.9477 36.7701 49.931C36.1197 49.9005 35.4673 49.9104 34.8159 49.931C34.5329 49.9389 34.4229 49.8819 34.4229 49.5616C34.4396 46.3871 34.4386 43.2116 34.4425 40.0371C35.0222 40.2228 35.5341 40.5765 36.154 40.6748C36.493 40.7288 36.829 40.7082 37.1641 40.7445C37.3517 40.9027 37.3291 41.1248 37.333 41.334C37.3439 41.8872 37.333 42.4413 37.3389 42.9945C37.3448 43.5476 37.3891 43.6026 37.9609 43.6036C40.1106 43.6105 42.2594 43.6036 44.4091 43.6085C44.6754 43.6115 44.9613 43.5663 45.1971 43.7667Z" fill="#EE9E00"/>
<path d="M23.1657 39.583L23.2767 39.5781C23.4791 39.7953 23.4271 40.0694 23.4281 40.3229C23.433 42.2948 23.4281 44.2667 23.4281 46.2396C23.4281 46.8723 23.9252 47.1729 24.4951 46.8969C24.7034 46.7986 24.6817 46.6021 24.6847 46.4331C24.6975 45.7159 24.6847 44.9986 24.6935 44.2814C24.7053 43.5887 24.8596 43.464 25.5326 43.6723C26.0386 43.8285 26.6016 43.8501 27.0152 44.247C27.0722 44.9869 27.0231 45.7277 27.0427 46.4675C27.0476 46.6424 27.0014 46.8222 27.0859 46.9912C27.2392 47.1297 27.4269 47.0698 27.5998 47.0698C28.8682 47.0757 30.1366 47.0845 31.4051 47.0698C31.7725 47.0639 31.9307 47.1454 31.9101 47.5512C31.8767 48.2164 31.8885 48.8845 31.9101 49.5516C31.9179 49.8522 31.8118 49.9397 31.5171 49.9387C28.7366 49.9259 25.9561 49.9269 23.1746 49.924C22.9957 49.7196 23.0311 49.4681 23.0282 49.2284C23.0203 48.7587 23.0282 48.2891 23.0233 47.8184C23.0144 47.3105 22.9692 47.2584 22.4662 47.2535C21.3314 47.2437 20.1976 47.2535 19.0628 47.2476C18.826 47.2476 18.5715 47.2889 18.375 47.0855C18.5204 46.9234 18.712 47 18.88 46.999C20.1828 46.9922 21.4846 46.9872 22.7875 46.999C23.0822 46.999 23.1805 46.9253 23.1805 46.6178C23.1667 44.2716 23.1687 41.9273 23.1657 39.583Z" fill="#FECF70"/>
<path d="M27.2906 0.024741C27.6286 -0.0843177 27.4733 0.196681 27.4753 0.294932C27.4891 1.19098 27.5038 2.08801 27.4753 2.98308C27.4625 3.36037 27.5814 3.57259 27.943 3.63547C28.5119 3.73372 28.6455 4.06679 28.5954 4.60226C28.5374 5.23205 28.6524 5.87953 28.5138 6.50244C28.1984 7.9261 27.2631 8.77302 25.9102 9.20729C25.5476 9.48534 25.1536 9.3812 24.7606 9.30554C24.3141 9.03041 23.9798 8.6056 23.8174 8.10688C23.5883 7.49731 23.4599 6.85455 23.4372 6.20375C23.4156 4.96972 23.4283 3.73569 23.4372 2.50165C23.424 2.33913 23.4521 2.17591 23.5187 2.0271C23.7152 1.82077 23.9117 1.96324 24.0984 2.03398C24.9768 2.36901 25.8591 2.69324 26.7374 3.02631C27.2572 3.22282 27.2523 3.22282 27.2631 2.64608C27.2719 1.7687 27.2081 0.897211 27.2906 0.024741Z" fill="#FE7266"/>
<path d="M22.7994 15.9791C22.9959 15.7138 22.88 15.4122 22.8868 15.1302C22.9045 14.3825 22.9085 13.6328 22.8868 12.8861C22.876 12.5373 22.9998 12.4381 23.3349 12.4479C24.3174 12.4754 24.1445 12.3497 24.1612 13.2821C24.1661 13.5582 24.1612 13.8352 24.1612 14.1113C24.1494 15.0575 24.1346 15.9594 23.7465 16.8967C22.9468 18.8323 22.991 20.8788 23.4518 22.9117C23.4618 22.9767 23.4668 23.0424 23.4665 23.1082C22.7041 23.116 21.9417 23.174 21.1822 23.0777C19.6367 20.6322 20.3814 17.444 22.7994 15.9791Z" fill="#4F3554"/>
<path d="M18.3783 47.0824C19.8088 47.0824 21.2394 47.106 22.6689 47.0824C23.115 47.0736 23.2211 47.217 23.2014 47.6346C23.1651 48.397 23.1818 49.1614 23.1759 49.9248C21.6766 49.9248 20.1766 49.9274 18.676 49.9327C18.5217 49.9327 18.3262 49.9818 18.3331 49.7185C18.3567 48.8372 18.2732 47.9578 18.3783 47.0824Z" fill="#EE9F00"/>
<path d="M23.5775 1.98804C23.5775 3.33605 23.548 4.68405 23.5775 6.03108C23.607 7.21009 23.8045 8.35668 24.7418 9.21736C24.616 9.34509 24.4863 9.32347 24.3547 9.2262C23.3515 8.8951 22.5213 8.34882 22.0261 7.37417C21.7597 6.83375 21.6231 6.23861 21.6272 5.63611C21.6135 4.31954 21.6321 3.00298 21.6174 1.68641C21.6125 1.3219 21.693 1.21481 22.0487 1.38675C22.3828 1.54886 22.7365 1.66676 23.0823 1.80431C23.2444 1.8839 23.4616 1.80137 23.5775 1.98804Z" fill="#E43045"/>
<path d="M23.5777 1.98845C23.4021 1.9654 23.2341 1.90256 23.0864 1.80472C23.3114 1.84402 23.4961 1.73201 23.6887 1.64555L27.2906 0.0253906C27.3279 0.0569212 27.3566 0.0975016 27.3738 0.143256C27.391 0.18901 27.3962 0.238411 27.3888 0.286739C27.3888 1.30953 27.3888 2.33331 27.3888 3.41702L23.5777 1.98845Z" fill="#E43045"/>
<path d="M24.3584 9.22669L24.7455 9.21785C25.1385 9.29547 25.5198 9.21196 25.9069 9.20508C25.9108 10.2531 25.9151 11.3031 25.9196 12.355H24.3535C24.3568 11.3116 24.3584 10.2688 24.3584 9.22669Z" fill="#CDE8EF"/>
<path d="M27.0904 46.9909C26.8939 46.6579 27.0196 46.2953 27.0049 45.9485C26.9803 45.3826 26.997 44.8147 26.9961 44.2478C26.8846 44.1071 26.8309 43.9294 26.8457 43.7506C26.8379 42.9122 26.8379 42.0744 26.8457 41.2373C26.8457 41.0595 26.8615 40.8807 27.001 40.7461L27.111 40.7549C27.1045 42.8333 27.0976 44.9119 27.0904 46.9909Z" fill="#FACA68"/>
<path d="M13.0854 32.3047V35.7553C12.2404 35.7553 11.3945 35.7425 10.5495 35.7553C10.2626 35.7553 10.1427 35.6796 10.1486 35.3711C10.1644 34.4783 10.1644 33.5846 10.1486 32.6898C10.1427 32.3813 10.2636 32.3017 10.5495 32.3057C11.3945 32.3165 12.2404 32.3057 13.0854 32.3047Z" fill="#EE9F00"/>
<path d="M27.0016 40.7444L26.9957 44.248C26.4504 44.0879 25.8993 43.9444 25.3618 43.7617C24.9688 43.628 24.8165 43.6821 24.8352 44.1448C24.8706 44.9741 24.8352 45.8063 24.8519 46.6375C24.8598 46.9715 24.7645 47.0855 24.4157 47.0865C23.273 47.0865 23.272 47.1022 23.273 45.9802C23.273 43.8462 23.273 41.7121 23.273 39.5781C23.9794 39.6361 24.6249 39.8847 25.2459 40.2089C25.801 40.4968 26.3728 40.7149 27.0016 40.7444Z" fill="#EE9E00"/>
<path d="M37.1836 32.3086C38.4854 32.3086 39.7882 32.3204 41.0901 32.3027C41.4408 32.3027 41.5813 32.3784 41.5715 32.7606C41.545 33.6055 41.545 34.4535 41.5715 35.2994C41.5843 35.6816 41.4398 35.7612 41.0901 35.7563C39.7882 35.7396 38.4854 35.7504 37.1836 35.7513V32.3086Z" fill="#EE9F00"/>
</g>
<defs>
<clipPath id="clip0_2884_50294">
<rect width="50" height="49.943" fill="white" transform="translate(0.188965)"/>
</clipPath>
</defs>
</svg>
