<svg width="18" height="20" viewBox="0 0 18 20" fill="none" xmlns="http://www.w3.org/2000/svg">
<path d="M14 2.25H13.73C13.633 0.996 12.821 0.25 11.5 0.25H6.5C5.179 0.25 4.36702 0.996 4.27002 2.25H4C1.582 2.25 0.25 3.582 0.25 6V16C0.25 18.418 1.582 19.75 4 19.75H14C16.418 19.75 17.75 18.418 17.75 16V6C17.75 3.582 16.418 2.25 14 2.25ZM5.75 2.5C5.75 1.911 5.911 1.75 6.5 1.75H11.5C12.089 1.75 12.25 1.911 12.25 2.5V3.5C12.25 4.089 12.089 4.25 11.5 4.25H6.5C5.911 4.25 5.75 4.089 5.75 3.5V2.5ZM16.25 16C16.25 17.577 15.577 18.25 14 18.25H4C2.423 18.25 1.75 17.577 1.75 16V6C1.75 4.423 2.423 3.75 4 3.75H4.27002C4.36702 5.004 5.179 5.75 6.5 5.75H11.5C12.821 5.75 13.633 5.004 13.73 3.75H14C15.577 3.75 16.25 4.423 16.25 6V16ZM14.25 10C14.25 10.414 13.914 10.75 13.5 10.75H9.5C9.086 10.75 8.75 10.414 8.75 10C8.75 9.586 9.086 9.25 9.5 9.25H13.5C13.914 9.25 14.25 9.586 14.25 10ZM14.25 14C14.25 14.414 13.914 14.75 13.5 14.75H9.5C9.086 14.75 8.75 14.414 8.75 14C8.75 13.586 9.086 13.25 9.5 13.25H13.5C13.914 13.25 14.25 13.586 14.25 14ZM7.03003 8.80298C7.32303 9.09598 7.32303 9.57101 7.03003 9.86401L5.69702 11.197C5.55602 11.338 5.36599 11.417 5.16699 11.417C4.96799 11.417 4.77696 11.338 4.63696 11.198L3.96997 10.531C3.67697 10.238 3.67697 9.76297 3.96997 9.46997C4.26297 9.17697 4.73801 9.17697 5.03101 9.46997L5.16797 9.60699L5.97095 8.80402C6.26295 8.51002 6.73703 8.50998 7.03003 8.80298ZM7.03003 12.803C7.32303 13.096 7.32303 13.571 7.03003 13.864L5.69702 15.197C5.55602 15.338 5.36599 15.417 5.16699 15.417C4.96799 15.417 4.77696 15.338 4.63696 15.198L3.96997 14.531C3.67697 14.238 3.67697 13.763 3.96997 13.47C4.26297 13.177 4.73801 13.177 5.03101 13.47L5.16797 13.607L5.97095 12.804C6.26295 12.51 6.73703 12.51 7.03003 12.803Z" fill="#595959"/>
</svg>
