<svg width="30" height="30" viewBox="0 0 30 30" fill="none" xmlns="http://www.w3.org/2000/svg">
<rect width="30" height="30" rx="15" fill="white"/>
<path d="M20 10.207H18.7834L18.3783 8.98958C18.1225 8.22292 17.4075 7.70703 16.5991 7.70703H13.4009C12.5925 7.70703 11.8775 8.22292 11.6217 8.98958L11.2166 10.207H10C7.985 10.207 6.875 11.317 6.875 13.332V19.9987C6.875 22.0137 7.985 23.1237 10 23.1237H20C22.015 23.1237 23.125 22.0137 23.125 19.9987V13.332C23.125 11.317 22.015 10.207 20 10.207ZM21.875 19.9987C21.875 21.3129 21.3142 21.8737 20 21.8737H10C8.68583 21.8737 8.125 21.3129 8.125 19.9987V13.332C8.125 12.0179 8.68583 11.457 10 11.457H11.6667C11.9358 11.457 12.1741 11.2846 12.2599 11.0296L12.8084 9.38367C12.8934 9.12783 13.1317 8.95622 13.4009 8.95622H16.5991C16.8683 8.95622 17.1066 9.12783 17.1916 9.38367L17.7401 11.0288C17.8259 11.2838 18.0642 11.4562 18.3333 11.4562H20C21.3142 11.4562 21.875 12.0171 21.875 13.3312V19.9987ZM15 13.5404C13.2775 13.5404 11.875 14.942 11.875 16.6654C11.875 18.3887 13.2775 19.7904 15 19.7904C16.7225 19.7904 18.125 18.3887 18.125 16.6654C18.125 14.942 16.7225 13.5404 15 13.5404ZM15 18.5404C13.9667 18.5404 13.125 17.6995 13.125 16.6654C13.125 15.6312 13.9667 14.7904 15 14.7904C16.0333 14.7904 16.875 15.6312 16.875 16.6654C16.875 17.6995 16.0333 18.5404 15 18.5404ZM20.4167 13.7487C20.4167 14.2087 20.0433 14.582 19.5833 14.582C19.1233 14.582 18.75 14.2087 18.75 13.7487C18.75 13.2887 19.1233 12.9154 19.5833 12.9154C20.0433 12.9154 20.4167 13.2887 20.4167 13.7487Z" fill="#595959"/>
</svg>
