<svg width="17" height="12" viewBox="0 0 17 12" fill="none" xmlns="http://www.w3.org/2000/svg">
<path fill-rule="evenodd" clip-rule="evenodd" d="M14.846 1.42253H2.48602C1.81591 1.42253 1.27268 2.01948 1.27268 2.75586V9.74487C1.27268 10.4813 1.81591 11.0782 2.48601 11.0782H14.846C15.5161 11.0782 16.0594 10.4812 16.0594 9.74487V2.75586C16.0594 2.01948 15.5161 1.42253 14.846 1.42253ZM2.48602 0.755859C1.48086 0.755859 0.666016 1.65129 0.666016 2.75586V9.74487C0.666016 10.8494 1.48086 11.7449 2.48601 11.7449H14.846C15.8512 11.7449 16.666 10.8494 16.666 9.74487V2.75586C16.666 1.65129 15.8512 0.755859 14.846 0.755859H2.48602Z" fill="#8C8C8C"/>
<rect x="0.666016" y="2.4043" width="16" height="3.2967" fill="#8C8C8C"/>
</svg>
