<svg width="10" height="10" viewBox="0 0 10 10" fill="none" xmlns="http://www.w3.org/2000/svg">
<path d="M9.35317 8.64715C9.5485 8.84248 9.5485 9.15917 9.35317 9.35451C9.25583 9.45184 9.12783 9.50115 8.99983 9.50115C8.87183 9.50115 8.74383 9.45251 8.6465 9.35451L4.99983 5.70782L1.35317 9.35451C1.25583 9.45184 1.12783 9.50115 0.999833 9.50115C0.871833 9.50115 0.743833 9.45251 0.6465 9.35451C0.451167 9.15917 0.451167 8.84248 0.6465 8.64715L4.29317 5.0005L0.6465 1.35386C0.451167 1.15852 0.451167 0.841833 0.6465 0.6465C0.841833 0.451167 1.1585 0.451167 1.35384 0.6465L5.0005 4.29319L8.64716 0.6465C8.84249 0.451167 9.15916 0.451167 9.3545 0.6465C9.54983 0.841833 9.54983 1.15852 9.3545 1.35386L5.70783 5.0005L9.35317 8.64715Z" fill="white"/>
</svg>
