<svg width="20" height="19" viewBox="0 0 20 19" fill="none" xmlns="http://www.w3.org/2000/svg">
<path d="M9.99899 18.7491C9.89299 18.7491 9.78696 18.7271 9.68796 18.6821C9.36096 18.5331 1.665 14.9641 0.430999 8.60808C-0.0460008 6.14908 0.433005 3.75007 1.71201 2.19207C2.747 0.930069 4.23496 0.259052 6.01596 0.250052C6.02496 0.250052 6.03396 0.250052 6.04196 0.250052C8.07396 0.250052 9.31301 1.40708 9.99802 2.39208C10.686 1.40308 11.9349 0.241052 13.9799 0.250052C15.7619 0.259052 17.251 0.930069 18.287 2.19207C19.564 3.74907 20.0419 6.14806 19.5639 8.60906C18.3319 14.9651 10.635 18.5351 10.308 18.6831C10.211 18.7271 10.105 18.7491 9.99899 18.7491ZM6.04098 1.74908C6.03498 1.74908 6.03002 1.74908 6.02402 1.74908C4.68602 1.75508 3.62604 2.22406 2.87204 3.14306C1.87304 4.36006 1.51202 6.29607 1.90402 8.32207C2.85902 13.2461 8.59199 16.4461 9.99899 17.1641C11.406 16.4461 17.139 13.2461 18.093 8.32207C18.487 6.29507 18.126 4.35906 17.129 3.14306C16.375 2.22506 15.315 1.75705 13.974 1.75005C13.968 1.75005 13.962 1.75005 13.957 1.75005C11.585 1.75005 10.7441 4.12708 10.7101 4.22808C10.6061 4.53108 10.32 4.73705 9.99997 4.73705C9.99797 4.73705 9.99694 4.73705 9.99594 4.73705C9.67494 4.73605 9.38896 4.53106 9.28696 4.22607C9.25396 4.12607 8.41198 1.74908 6.04098 1.74908Z" fill="#595959"/>
</svg>
