<svg width="14" height="14" viewBox="0 0 14 14" fill="none" xmlns="http://www.w3.org/2000/svg">
<path d="M6.99933 13.2741C6.92866 13.2741 6.85797 13.2594 6.79197 13.2294C6.57397 13.1301 1.44333 10.7508 0.620666 6.51346C0.302666 4.87413 0.622003 3.27479 1.47467 2.23612C2.16467 1.39479 3.15664 0.947441 4.34397 0.941441C4.34997 0.941441 4.35597 0.941441 4.36131 0.941441C5.71597 0.941441 6.54201 1.71279 6.99868 2.36946C7.45734 1.71013 8.28997 0.935441 9.6533 0.941441C10.8413 0.947441 11.834 1.39479 12.5246 2.23612C13.376 3.27412 13.6946 4.87345 13.376 6.51411C12.5546 10.7514 7.4233 13.1315 7.2053 13.2301C7.14064 13.2595 7.06999 13.2741 6.99933 13.2741ZM4.36066 1.94079C4.35666 1.94079 4.35334 1.94079 4.34934 1.94079C3.45734 1.94479 2.75069 2.25744 2.24803 2.87011C1.58203 3.68144 1.34135 4.97212 1.60268 6.32279C2.23935 9.60546 6.06133 11.7388 6.99933 12.2174C7.93733 11.7388 11.7593 9.60546 12.3953 6.32279C12.658 4.97146 12.4173 3.68078 11.7527 2.87011C11.25 2.25811 10.5433 1.94611 9.64931 1.94144C9.64531 1.94144 9.64133 1.94144 9.638 1.94144C8.05667 1.94144 7.49603 3.52613 7.47337 3.59346C7.40403 3.79546 7.21331 3.93277 6.99998 3.93277C6.99865 3.93277 6.99796 3.93277 6.99729 3.93277C6.78329 3.93211 6.59264 3.79545 6.52464 3.59212C6.50264 3.52545 5.94132 1.94079 4.36066 1.94079Z" fill="#D9D9D9"/>
</svg>
