<svg width="20" height="20" viewBox="0 0 20 20" fill="none" xmlns="http://www.w3.org/2000/svg">
<path d="M16 19.7493H11.75V14.4993C11.75 13.5343 10.965 12.7493 10 12.7493C9.035 12.7493 8.25 13.5343 8.25 14.4993V19.7493H4C1.582 19.7493 0.25 18.4173 0.25 15.9993V9.64931C0.25 7.52631 0.835992 6.93328 1.79199 6.14028L7.91199 1.0093C9.12099 -0.00570309 10.879 -0.00570309 12.088 1.0093L18.208 6.14028C19.164 6.93328 19.75 7.52731 19.75 9.64931V15.9993C19.75 18.4173 18.418 19.7493 16 19.7493ZM13.25 18.2493H16C17.577 18.2493 18.25 17.5763 18.25 15.9993V9.64931C18.25 8.12331 17.998 7.91433 17.251 7.29433L11.125 2.15834C10.473 1.61234 9.527 1.61234 8.875 2.15834L2.74902 7.29433C2.00202 7.91433 1.75 8.12331 1.75 9.64931V15.9993C1.75 17.5763 2.423 18.2493 4 18.2493H6.75V14.4993C6.75 12.7073 8.208 11.2493 10 11.2493C11.792 11.2493 13.25 12.7073 13.25 14.4993V18.2493Z" fill="#8C8C8C"/>
</svg>
