<svg width="22" height="22" viewBox="0 0 22 22" fill="none" xmlns="http://www.w3.org/2000/svg">
<path d="M11 21.75C5.072 21.75 0.25 16.928 0.25 11C0.25 5.072 5.072 0.25 11 0.25C16.928 0.25 21.75 5.072 21.75 11C21.75 16.928 16.928 21.75 11 21.75ZM11 1.75C5.899 1.75 1.75 5.899 1.75 11C1.75 16.101 5.899 20.25 11 20.25C16.101 20.25 20.25 16.101 20.25 11C20.25 5.899 16.101 1.75 11 1.75ZM11.75 15.5V10.929C11.75 10.515 11.414 10.179 11 10.179C10.586 10.179 10.25 10.515 10.25 10.929V15.5C10.25 15.914 10.586 16.25 11 16.25C11.414 16.25 11.75 15.914 11.75 15.5ZM12.02 7.5C12.02 6.948 11.573 6.5 11.02 6.5H11.01C10.458 6.5 10.0149 6.948 10.0149 7.5C10.0149 8.052 10.468 8.5 11.02 8.5C11.572 8.5 12.02 8.052 12.02 7.5Z" fill="#434343"/>
</svg>
