<svg width="18" height="20" viewBox="0 0 18 20" fill="none" xmlns="http://www.w3.org/2000/svg">
<path d="M8.67383 0.625C3.98683 0.625 0.173828 4.438 0.173828 9.125C0.173828 14.108 4.80283 17.166 7.86583 19.189L8.39583 19.541C8.47983 19.597 8.57682 19.625 8.67282 19.625C8.76882 19.625 8.86583 19.597 8.94983 19.541L9.47983 19.189C12.5428 17.166 17.1718 14.108 17.1718 9.125C17.1738 4.438 13.3608 0.625 8.67383 0.625ZM8.67383 11.625C7.29283 11.625 6.17383 10.506 6.17383 9.125C6.17383 7.744 7.29283 6.625 8.67383 6.625C10.0548 6.625 11.1738 7.744 11.1738 9.125C11.1738 10.506 10.0548 11.625 8.67383 11.625Z" fill="#CF1322"/>
</svg>
