<svg width="16" height="17" viewBox="0 0 16 17" fill="none" xmlns="http://www.w3.org/2000/svg">
<path d="M12.6875 0.958984H3.31251C1.20001 0.958984 0.0833435 2.07565 0.0833435 4.18815V13.5632C0.0833435 15.6757 1.20001 16.7923 3.31251 16.7923H12.6875C14.8 16.7923 15.9167 15.6757 15.9167 13.5632V4.18815C15.9167 2.07565 14.8 0.958984 12.6875 0.958984ZM15.0833 13.5632C15.0833 15.1973 14.3225 15.959 12.6875 15.959H3.31251C1.67751 15.959 0.916677 15.1973 0.916677 13.5632V4.18815C0.916677 2.55398 1.67751 1.79232 3.31251 1.79232H12.6875C14.3225 1.79232 15.0833 2.55398 15.0833 4.18815V13.5632ZM12.1667 6.79232C12.1667 7.02232 11.98 7.20898 11.75 7.20898H8.41668C8.18668 7.20898 8.00001 7.02232 8.00001 6.79232C8.00001 6.56232 8.18668 6.37565 8.41668 6.37565H11.75C11.98 6.37565 12.1667 6.56232 12.1667 6.79232ZM12.1667 10.959C12.1667 11.189 11.98 11.3757 11.75 11.3757H8.41668C8.18668 11.3757 8.00001 11.189 8.00001 10.959C8.00001 10.729 8.18668 10.5423 8.41668 10.5423H11.75C11.98 10.5423 12.1667 10.729 12.1667 10.959ZM6.21168 5.9423C6.37418 6.1048 6.37418 6.36899 6.21168 6.53149L5.10084 7.64233C5.01917 7.724 4.9125 7.764 4.80584 7.764C4.69917 7.764 4.5925 7.72317 4.51083 7.64233L3.95501 7.08651C3.79251 6.92401 3.79251 6.65981 3.95501 6.49731C4.11751 6.33481 4.3817 6.33481 4.5442 6.49731L4.80502 6.75814L5.62086 5.9423C5.78503 5.7798 6.04835 5.7798 6.21168 5.9423ZM6.21168 10.109C6.37418 10.2715 6.37418 10.5357 6.21168 10.6982L5.10084 11.809C5.01917 11.8907 4.9125 11.9307 4.80584 11.9307C4.69917 11.9307 4.5925 11.8898 4.51083 11.809L3.95501 11.2532C3.79251 11.0907 3.79251 10.8265 3.95501 10.664C4.11751 10.5015 4.3817 10.5015 4.5442 10.664L4.80502 10.9248L5.62086 10.109C5.78503 9.94647 6.04835 9.94647 6.21168 10.109Z" fill="#595959"/>
</svg>
