<svg width="20" height="18" viewBox="0 0 20 18" fill="none" xmlns="http://www.w3.org/2000/svg">
<path d="M19 13.25H18.652C18.712 12.833 18.75 12.415 18.75 12C18.75 7.868 15.867 4.404 12.009 3.492C12.158 3.191 12.25 2.857 12.25 2.5C12.25 1.259 11.241 0.25 10 0.25C8.759 0.25 7.75 1.259 7.75 2.5C7.75 2.858 7.842 3.191 7.991 3.492C4.133 4.403 1.25 7.867 1.25 12C1.25 12.415 1.28801 12.833 1.34801 13.25H1C0.586 13.25 0.25 13.586 0.25 14V15C0.25 16.516 1.483 17.75 3 17.75H17C18.517 17.75 19.75 16.516 19.75 15V14C19.75 13.586 19.414 13.25 19 13.25ZM9.25 2.5C9.25 2.086 9.586 1.75 10 1.75C10.414 1.75 10.75 2.086 10.75 2.5C10.75 2.914 10.414 3.25 10 3.25C9.586 3.25 9.25 2.914 9.25 2.5ZM2.75 12C2.75 8.002 6.002 4.75 10 4.75C13.998 4.75 17.25 8.002 17.25 12C17.25 12.415 17.201 12.833 17.129 13.25H2.871C2.799 12.833 2.75 12.415 2.75 12ZM18.25 15C18.25 15.689 17.689 16.25 17 16.25H3C2.311 16.25 1.75 15.689 1.75 15V14.75H17.749C17.75 14.75 17.75 14.75 17.751 14.75H17.752H18.25V15ZM14.707 8.604C14.925 8.956 14.817 9.41802 14.465 9.63702C14.342 9.71302 14.205 9.75 14.07 9.75C13.82 9.75 13.574 9.624 13.432 9.396C12.914 8.561 11.932 7.92601 10.869 7.73901C10.461 7.66701 10.189 7.278 10.261 6.87C10.333 6.462 10.725 6.19102 11.13 6.26202C12.623 6.52502 13.959 7.401 14.707 8.604Z" fill="#8C8C8C"/>
</svg>
