<svg width="16" height="16" viewBox="0 0 16 16" fill="none" xmlns="http://www.w3.org/2000/svg">
<path d="M11.9783 7.68079L4.26667 15.3599H0V11.0928L7.67833 3.38045C7.77817 3.27974 7.94035 3.27974 8.04104 3.38045L11.9792 7.31899C12.079 7.41884 12.079 7.58094 11.9783 7.68079ZM12.8921 6.42285C12.9919 6.5227 13.1541 6.5227 13.254 6.42285L14.8565 4.82018C15.5255 4.1511 15.5255 3.06557 14.8565 2.39649L12.9621 0.501813C12.2931 -0.167271 11.2078 -0.167271 10.5388 0.501813L8.93604 2.10458C8.8362 2.20444 8.8362 2.36654 8.93604 2.46639L12.8921 6.42285ZM15.36 14.7199H9.38667C9.03339 14.7199 8.74667 15.0066 8.74667 15.3599C8.74667 15.7133 9.03339 16 9.38667 16H15.36C15.7133 16 16 15.7133 16 15.3599C16 15.0066 15.7133 14.7199 15.36 14.7199Z" fill="#FAAD14"/>
</svg>
