<svg width="17" height="17" viewBox="0 0 17 17" fill="none" xmlns="http://www.w3.org/2000/svg">
<path d="M13.6736 10.0566L16.023 11.4574C16.5083 11.7472 16.7589 12.3107 16.6477 12.8654C16.1935 15.14 13.9092 16.5977 11.672 15.9835C6.39298 14.5347 2.26942 10.4237 0.815235 5.13311C0.200138 2.89495 1.6562 0.608762 3.93169 0.153662L3.94667 0.151003C4.50221 0.0398949 5.06856 0.291445 5.35744 0.779433L6.74673 3.12516C7.24094 3.95981 6.99548 5.03443 6.1875 5.57131L4.71119 6.55352C5.75294 9.04857 7.74395 11.0476 10.2319 12.0876L11.223 10.6076C11.7643 9.80144 12.8399 9.55967 13.6736 10.0566Z" fill="#CF1322"/>
</svg>
