<svg width="33" height="45" viewBox="0 0 33 45" fill="none" xmlns="http://www.w3.org/2000/svg">
<g clip-path="url(#clip0_2865_48249)">
<path d="M7.65906 34.2481C5.05343 30.4324 2.88017 26.4001 1.71533 21.8575C0.79338 18.2454 0.60136 14.615 1.88192 11.0577C4.06281 5.00536 8.2898 1.27711 14.4891 0.226627C22.6341 -1.15662 30.203 3.97315 32.4195 12.1474C33.0757 14.5694 33.1138 17.0253 32.7285 19.4943C32.6917 19.7305 32.7285 19.9849 32.6014 20.2042C31.4403 21.6318 30.0975 22.8663 28.7177 24.0629C27.6025 25.0263 26.4386 25.9289 25.2308 26.7668C25.0795 26.8725 24.9142 27.1413 24.6713 26.8842C24.7985 26.5006 25.152 26.3309 25.4178 26.0908C27.6444 24.0864 29.0471 21.59 29.5786 18.6108C30.2513 14.8473 29.4744 11.3827 27.2401 8.32647C25.0057 5.27027 21.997 3.52294 18.2749 3.13145C14.6316 2.75693 11.4079 3.80481 8.63188 6.24768C6.04914 8.52352 4.58546 11.4166 4.25356 14.8982C3.8975 18.6408 4.93008 21.945 7.30554 24.7871C9.38852 27.2731 12.0361 28.7242 15.1847 29.2057C17.7281 29.5972 20.1709 29.1809 22.5006 28.0626C22.7079 27.9634 22.9012 27.7781 23.1644 27.8877C23.2216 28.2035 22.9482 28.2544 22.7829 28.3601C20.9639 29.4833 19.0655 30.4652 17.1037 31.2976C14.0611 32.607 10.8966 33.5956 7.65906 34.2481Z" fill="#F94B4B"/>
<path d="M24.6635 26.9225C25.2409 26.7528 25.6618 26.3183 26.1272 25.9738C28.2399 24.413 30.2147 22.6645 32.029 20.7488C32.2045 20.5635 32.2401 20.1981 32.5949 20.2072C32.3965 21.7418 31.9323 23.2086 31.4084 24.644C29.8824 28.8303 27.6214 32.5886 24.9942 36.1276C22.6885 39.2325 20.1305 42.1311 17.3477 44.7925C17.0756 45.0535 16.937 45.094 16.6394 44.8095C13.4286 41.7366 10.5168 38.3503 7.94506 34.6987C7.8446 34.5552 7.75431 34.4025 7.65894 34.255C7.67674 34.0749 7.80899 34.088 7.93616 34.0619C11.4971 33.3209 14.9652 32.1701 18.2747 30.6312C19.8865 29.8795 21.4572 29.0383 22.9799 28.1113C23.0658 28.0688 23.132 27.9933 23.1643 27.9012C23.5826 27.434 24.0379 27.0399 24.6635 26.9225Z" fill="#DB3C46"/>
<path d="M24.6636 26.9232L23.1668 27.8954C21.8481 28.5374 20.4963 29.0777 19.039 29.2995C15.205 29.8815 11.7511 28.955 8.7691 26.4286C5.67134 23.807 4.08686 20.371 4.05252 16.25C3.99784 9.95098 8.27061 4.54456 14.2983 3.20046C21.4946 1.59928 28.6248 6.57637 29.7362 14.0694C30.4916 19.1705 28.8053 23.3685 24.942 26.6557C24.8454 26.7431 24.7526 26.8358 24.6636 26.9232Z" fill="#EDEDED"/>
<path d="M21.552 21.6135C21.552 20.4086 21.552 19.2045 21.552 18.0014C21.552 17.8187 21.5609 17.6673 21.3371 17.5825C19.5059 16.8934 18.7048 15.4045 18.5394 13.5371C18.3818 11.7937 18.8879 10.2395 20.2829 9.12376C21.7466 7.9493 23.6172 8.18027 24.8914 9.62486C26.5789 11.5366 26.514 14.8447 24.754 16.6599C24.3994 17.0588 23.9511 17.358 23.4519 17.529C23.1123 17.6307 23.0704 17.8095 23.0704 18.1201C23.0805 20.4468 23.0704 22.7736 23.0856 25.1003C23.0856 25.4918 22.9763 25.5818 22.6126 25.5753C21.5533 25.5544 21.5533 25.5753 21.5533 24.4922L21.552 21.6135Z" fill="#AC2A37"/>
<path d="M12.4176 15.6965V10.5185C12.4176 9.93384 12.4316 9.344 12.4176 8.76199C12.4074 8.4749 12.4723 8.37051 12.7788 8.37051C13.9461 8.36268 13.9461 8.34963 13.9461 9.54496V15.7174C14.3963 15.4799 14.7994 15.2685 15.2 15.0532C15.4543 14.9227 15.4721 14.6878 15.4709 14.4281C15.4709 12.5738 15.4772 10.7194 15.4607 8.86508C15.4607 8.4997 15.5268 8.36659 15.9185 8.37572C16.9905 8.40182 16.9905 8.37572 16.9905 9.49537C16.9905 11.1383 16.9905 12.7812 16.9905 14.4242C16.9905 15.4199 16.5823 16.1337 15.701 16.5643C15.2292 16.794 14.7753 17.0641 14.2946 17.269C14.0161 17.3877 13.9334 17.53 13.936 17.8405C13.9499 20.2325 13.936 22.6232 13.9525 25.0178C13.9525 25.4354 13.8889 25.6063 13.426 25.5881C12.4214 25.5476 12.4201 25.5763 12.4201 24.5441C12.4201 22.3152 12.4201 20.0864 12.4265 17.8588C12.4265 17.5652 12.3718 17.3995 12.0819 17.2755C11.5567 17.0511 11.0557 16.7679 10.5483 16.503C9.76874 16.0945 9.38088 15.4303 9.37707 14.5377C9.37707 12.6181 9.3847 10.6985 9.36816 8.77895C9.36816 8.44619 9.47244 8.38747 9.77001 8.38747C10.898 8.38747 10.898 8.37833 10.898 9.54496C10.898 11.1553 10.912 12.7656 10.8891 14.3733C10.8891 14.7752 11.0162 15.0153 11.3596 15.1771C11.7029 15.339 12.0361 15.5021 12.4176 15.6965Z" fill="#AC2A37"/>
</g>
<defs>
<clipPath id="clip0_2865_48249">
<rect width="32" height="45" fill="white" transform="translate(0.972656)"/>
</clipPath>
</defs>
</svg>
