<svg width="26" height="26" viewBox="0 0 26 26" fill="none" xmlns="http://www.w3.org/2000/svg">
<path d="M26 3V7.66667C26 8.21867 25.552 8.66667 25 8.66667C24.448 8.66667 24 8.21867 24 7.66667V3C24 2.21467 23.7853 2 23 2H18.3333C17.7813 2 17.3333 1.552 17.3333 1C17.3333 0.448 17.7813 0 18.3333 0H23C24.8787 0 26 1.12133 26 3ZM1 8.66667C1.552 8.66667 2 8.21867 2 7.66667V3C2 2.21467 2.21467 2 3 2H7.66667C8.21867 2 8.66667 1.552 8.66667 1C8.66667 0.448 8.21867 0 7.66667 0H3C1.12133 0 0 1.12133 0 3V7.66667C0 8.21867 0.448 8.66667 1 8.66667ZM7.66667 24H3C2.21467 24 2 23.7853 2 23V18.3333C2 17.7813 1.552 17.3333 1 17.3333C0.448 17.3333 0 17.7813 0 18.3333V23C0 24.8787 1.12133 26 3 26H7.66667C8.21867 26 8.66667 25.552 8.66667 25C8.66667 24.448 8.21867 24 7.66667 24ZM25 17.3333C24.448 17.3333 24 17.7813 24 18.3333V23C24 23.7853 23.7853 24 23 24H18.3333C17.7813 24 17.3333 24.448 17.3333 25C17.3333 25.552 17.7813 26 18.3333 26H23C24.8787 26 26 24.8787 26 23V18.3333C26 17.7813 25.552 17.3333 25 17.3333ZM13.3333 10.6667V7.33333C13.3333 6.11867 14.1187 5.33333 15.3333 5.33333H18.6667C19.8813 5.33333 20.6667 6.11867 20.6667 7.33333V10.6667C20.6667 11.8813 19.8813 12.6667 18.6667 12.6667H15.3333C14.1187 12.6667 13.3333 11.8813 13.3333 10.6667ZM15.3333 10.6667H18.6559L18.6667 7.34399L15.3441 7.33333L15.3333 10.6667ZM12.6667 7.33333V10.6667C12.6667 11.8813 11.8813 12.6667 10.6667 12.6667H7.33333C6.11867 12.6667 5.33333 11.8813 5.33333 10.6667V7.33333C5.33333 6.11867 6.11867 5.33333 7.33333 5.33333H10.6667C11.8813 5.33333 12.6667 6.11867 12.6667 7.33333ZM10.6667 7.34399L7.34408 7.33333L7.33333 10.6667H10.6559L10.6667 7.34399ZM18.6667 20.6667H15.3333C14.1187 20.6667 13.3333 19.8813 13.3333 18.6667V15.3333C13.3333 14.1187 14.1187 13.3333 15.3333 13.3333H18.6667C19.8813 13.3333 20.6667 14.1187 20.6667 15.3333V18.6667C20.6667 19.8813 19.8813 20.6667 18.6667 20.6667ZM18.6559 18.6667L18.6667 15.344L15.3441 15.3333L15.3333 18.6667H18.6559ZM12.6667 15.3333V18.6667C12.6667 19.8813 11.8813 20.6667 10.6667 20.6667H7.33333C6.11867 20.6667 5.33333 19.8813 5.33333 18.6667V15.3333C5.33333 14.1187 6.11867 13.3333 7.33333 13.3333H10.6667C11.8813 13.3333 12.6667 14.1187 12.6667 15.3333ZM10.6667 15.344L7.34408 15.3333L7.33333 18.6667H10.6559L10.6667 15.344Z" fill="white"/>
</svg>
