<svg width="20" height="22" viewBox="0 0 20 22" fill="none" xmlns="http://www.w3.org/2000/svg">
<path d="M10 21.7499C9.92 21.7499 9.83994 21.7368 9.76294 21.7108C8.17394 21.1808 0.25 18.1218 0.25 9.88781V3.99987C0.25 3.64287 0.502027 3.33376 0.853027 3.26476C5.73303 2.28876 7.46305 1.43087 9.65405 0.343865C9.86505 0.238865 10.145 0.224949 10.356 0.329949C12.517 1.41895 14.2239 2.27976 19.1479 3.26476C19.4989 3.33476 19.751 3.64287 19.751 3.99987V9.88879C19.751 18.1228 11.827 21.1818 10.238 21.7118C10.16 21.7368 10.08 21.7499 10 21.7499ZM1.75 4.61193V9.88781C1.75 16.7528 8.168 19.5479 10 20.2049C11.832 19.5479 18.25 16.7518 18.25 9.88781V4.61193C13.829 3.68693 11.9699 2.81876 10.0149 1.83776C7.93789 2.86476 6.135 3.69593 1.75 4.61193ZM9.54199 13.5299L13.542 9.5299C13.835 9.2369 13.835 8.76187 13.542 8.46887C13.249 8.17587 12.774 8.17587 12.481 8.46887L9.01099 11.9388L7.54102 10.4689C7.24802 10.1759 6.77298 10.1759 6.47998 10.4689C6.18698 10.7619 6.18698 11.2369 6.47998 11.5299L8.47998 13.5299C8.62598 13.6759 8.81801 13.7499 9.01001 13.7499C9.20201 13.7499 9.39599 13.6769 9.54199 13.5299Z" fill="#434343"/>
</svg>
