<svg width="51" height="48" viewBox="0 0 51 48" fill="none" xmlns="http://www.w3.org/2000/svg">
<g clip-path="url(#clip0_2884_50316)">
<path d="M37.957 21.8807V18.768C38.1021 18.6047 38.3007 18.5955 38.4954 18.5955C41.6603 18.5955 44.8266 18.5733 47.9915 18.6047C48.6972 18.5798 49.4028 18.5955 50.1071 18.5968C50.3009 18.5754 50.4954 18.6302 50.6495 18.7497V18.8477C50.4757 19.0019 50.2574 18.9967 50.0497 18.9993C49.5936 18.9993 49.1349 19.0137 48.6815 18.9993C48.3104 18.9862 48.1509 19.13 48.1588 19.5102C48.1732 20.0957 48.1679 20.6863 48.1588 21.2678C48.1588 21.4939 48.1784 21.7291 48.0111 21.9212C47.8203 22.0519 47.6034 22.0179 47.3943 22.0179C44.4646 22.0179 41.5353 22.0179 38.6065 22.0179C38.3843 22.014 38.1517 22.0597 37.957 21.8807Z" fill="#FE8085"/>
<path d="M37.9572 21.8814H48.0113C48.1226 21.7856 48.2656 21.7348 48.4124 21.739C49.0222 21.7224 49.6342 21.7224 50.2484 21.739C50.3949 21.737 50.5371 21.7886 50.6483 21.884V25.7951C50.3386 26.5086 49.9452 27.1319 49.0906 27.2678C48.2818 27.3632 47.4742 27.2835 46.6522 27.3136C46.6522 27.0287 46.8665 26.962 47.0142 26.8601C47.2784 26.6813 47.4935 26.439 47.6396 26.1554C47.7857 25.8718 47.8583 25.5561 47.8505 25.2371C47.8662 24.3917 47.861 23.5462 47.8505 22.7007C47.8505 22.199 47.7904 22.1415 47.2834 22.1375C45.8682 22.1284 44.4543 22.1375 43.0391 22.1375C41.5755 22.1375 40.112 22.1375 38.6484 22.1375C38.4093 22.1375 38.1558 22.1767 37.9558 21.986C37.9446 21.9519 37.9451 21.9151 37.9572 21.8814Z" fill="#FEC169"/>
<path d="M50.6488 18.7513H48.0078C47.8537 18.5749 47.8693 18.3593 47.868 18.1489C47.868 17.6772 47.868 17.2067 47.868 16.735C47.868 15.9248 47.557 15.2871 46.8448 14.8663C46.7272 14.7958 46.5757 14.7487 46.5391 14.4978C47.2721 14.5161 47.9882 14.4573 48.707 14.5384C49.7354 14.5292 50.275 15.1643 50.6514 16.0137L50.6488 18.7513Z" fill="#FEC169"/>
<path d="M50.6488 21.8793H48.0117C48.0117 20.9999 48.0196 20.1191 48.0039 19.2397C48.0039 18.9391 48.1045 18.8477 48.3959 18.8477C49.146 18.8633 49.8961 18.8477 50.6448 18.8477L50.6488 21.8793Z" fill="#F66672"/>
<path d="M29.4168 41.721L16.9139 41.7288C16.7363 41.5598 16.6046 41.3485 16.531 41.1147C16.2095 40.3306 15.8423 39.5701 15.5758 38.7625C15.513 38.5743 15.3706 38.3613 15.6502 38.2111C16.5271 38.0895 17.4078 38.1693 18.2859 38.1601C20.1428 38.1366 21.9997 38.1601 23.8553 38.1497C24.0186 38.1497 24.182 38.1497 24.344 38.1497C24.9464 38.1301 25.0588 38.019 25.0693 37.4283C25.0849 36.6142 25.0575 35.7988 25.0823 34.9847C25.1124 34.3 24.9595 33.6048 25.1856 32.9292C25.3737 32.758 25.6089 32.7802 25.8389 32.7802C30.4404 32.7802 35.041 32.7802 39.6408 32.7802C40.7136 32.7802 41.5055 33.2232 41.9576 34.2451C42.22 34.7864 42.4102 35.3597 42.5235 35.9504C42.5535 36.1425 42.5914 36.3424 42.4725 36.5162C42.0805 36.6221 41.8988 36.2758 41.6754 36.085C40.8125 35.3317 39.7848 34.7914 38.6751 34.5078C37.6205 34.2259 36.5143 34.1963 35.4461 34.4215C32.3609 35.1193 30.1812 37.3735 29.6115 40.4495C29.572 40.7059 29.5532 40.965 29.5553 41.2244C29.5501 41.4008 29.5788 41.5877 29.4168 41.721Z" fill="#FEDF7D"/>
<path d="M23.6604 16.2043C23.6983 14.7669 23.7806 13.3295 24.3046 11.9626C21.171 11.6216 19.7271 9.31908 19.8577 6.91859C20.404 6.80229 20.9567 6.88462 21.5068 6.87286C22.189 6.85718 22.8711 6.8624 23.5545 6.87286C24.2902 6.882 24.5411 7.09762 24.6483 7.83462C24.7463 8.51282 24.6796 9.19756 24.6927 9.87968C24.7005 10.3018 24.6927 10.7251 24.6927 11.1472C24.7018 11.7157 24.7554 11.7549 25.333 11.6425C25.397 11.6307 25.4637 11.6137 25.5225 11.5994C25.7459 11.5602 25.9602 11.4687 26.1928 11.4948C26.5234 11.5275 26.7482 11.7392 26.9769 11.9522C28.2758 13.1701 29.1317 14.6794 29.7668 16.3141C30.6815 18.6571 31.0213 21.1164 31.1245 23.6149C31.1349 23.8619 31.1951 24.1493 30.9102 24.3179C30.7412 24.3707 30.5642 24.3928 30.3875 24.3832C28.8455 24.3832 27.304 24.3832 25.7629 24.3832C25.5866 24.3921 25.41 24.3718 25.2402 24.3231C25.0716 24.2578 25.0115 24.1049 24.9606 23.952C24.5731 22.8235 24.2777 21.6654 24.0772 20.4891C24.1033 20.2043 24.332 20.0867 24.5346 19.9599C25.2794 19.496 26.0099 19.0125 26.7351 18.5225C27.1941 18.2368 27.5509 17.8133 27.7544 17.3124C28.0288 16.5767 27.8276 15.9508 27.1311 15.3223C26.2634 14.7996 25.4872 14.8767 24.6796 15.5274C24.3516 15.7744 24.1151 16.1547 23.6604 16.2043Z" fill="#EDE9EA"/>
<path d="M29.4161 41.7211C29.2658 38.2164 31.9904 34.9443 35.3997 34.3066C37.8825 34.8855 39.5525 36.4223 40.5692 38.7221C40.8987 39.5032 41.1004 40.3323 41.1663 41.1775C41.1964 41.4702 41.1663 41.7394 40.8227 41.8439C40.5976 41.8839 40.3688 41.8979 40.1405 41.8858H31.9355C31.7077 41.9006 31.4792 41.8736 31.2612 41.8061C30.6523 41.6427 30.029 41.7995 29.4161 41.7211Z" fill="#FE7F85"/>
<path d="M37.9586 21.9746C41.1287 21.9746 44.2989 21.9838 47.469 21.9668C47.8911 21.9668 48.0375 22.0661 48.0192 22.5065C47.9826 23.3506 47.9891 24.1974 48.0192 25.0429C48.0479 26.036 47.6572 26.7626 46.753 27.2643H49.0959C48.9287 27.4107 48.7235 27.3545 48.5353 27.3545C47.0587 27.3545 45.5821 27.3545 44.1068 27.3545C43.5606 27.4786 43.0065 27.3898 42.4577 27.412C41.6972 27.4408 40.9314 27.3545 40.1735 27.4852C39.5837 27.5248 38.9921 27.5318 38.4015 27.5061C38.2304 27.5061 38.0422 27.5061 37.9429 27.314L37.9586 21.9746Z" fill="#FEDF7D"/>
<path d="M7.91504 34.8803C8.52485 32.7556 9.13467 30.6304 9.74448 28.5047C10.4414 26.0655 11.1431 23.6284 11.8496 21.1935C11.8894 21.1484 11.9403 21.1146 11.9973 21.0955C12.52 21.0615 13.0427 20.9896 13.5654 21.1438C13.7706 21.4052 13.6007 21.643 13.5223 21.8769C12.9188 23.6345 12.486 25.4462 12.2299 27.2868C11.8457 30.2851 12.0954 33.3307 12.963 36.2263C13.4482 37.8327 14.0308 39.4081 14.7075 40.9436C14.8107 41.1841 15.0107 41.4232 14.8643 41.7212L14.0803 41.7434C13.7379 41.5957 13.5288 41.2965 13.2962 41.0325C12.2822 39.8913 11.2664 38.7522 10.2489 37.6154C9.52626 36.8026 8.7801 36.0094 8.08492 35.1717C7.99978 35.0943 7.94049 34.9926 7.91504 34.8803Z" fill="#FE8085"/>
<path d="M37.9375 27.3105L40.1864 27.3537C40.2375 27.4066 40.2764 27.47 40.3003 27.5395C40.3242 27.6091 40.3326 27.683 40.3249 27.7561C40.338 28.5846 40.351 29.4131 40.3249 30.239C40.3027 30.8375 39.9799 31.236 39.4219 31.4477C39.3328 31.4805 39.2385 31.4969 39.1436 31.4961C34.7111 31.5039 30.2786 31.5039 25.8461 31.4961C25.6511 31.5182 25.4535 31.4936 25.2699 31.4242C25.117 31.3183 25.1065 31.1524 25.0908 30.9916C25.0791 30.846 25.0791 30.6996 25.0908 30.5539C25.1915 29.0799 25.4554 28.4905 27.1111 28.5676C27.5972 28.5898 28.0846 28.5676 28.5707 28.5676C29.1843 28.6027 29.7998 28.5808 30.4093 28.5023C31.1855 28.3834 31.8794 28.1273 32.4295 27.5458C32.5393 27.4295 32.6582 27.3105 32.8412 27.3197L37.9375 27.3105Z" fill="#6F6571"/>
<path d="M26.1837 11.5968L25.6374 11.6948C25.4271 11.504 25.4676 11.2479 25.4663 11.0087C25.4663 9.67322 25.4663 8.33904 25.4663 7.00354C25.4663 6.12018 25.2689 5.91894 24.3712 5.90457C23.4264 5.88889 22.483 5.89281 21.5382 5.90457C20.5934 5.91633 19.6303 5.77912 18.6816 5.74907C18.7378 3.58248 19.6774 1.92161 21.5251 0.783433C24.9475 0.27903 27.9099 3.21137 28.1177 6.34886C28.2483 8.26455 27.7021 9.93196 26.5744 11.4452C26.4921 11.615 26.3078 11.5327 26.1837 11.5968Z" fill="#FE8085"/>
<path d="M2.25411 40.7618C2.26071 40.7223 2.25846 40.6819 2.24751 40.6433C2.23657 40.6048 2.21721 40.5692 2.19083 40.5391C2.16445 40.5089 2.13171 40.485 2.09497 40.4691C2.05823 40.4532 2.01841 40.4456 1.97839 40.4469C1.64386 40.4012 1.32501 40.2705 0.986566 40.2248C0.624598 40.1764 0.60369 39.9909 0.692548 39.7021C1.17624 38.0498 2.27601 36.6465 3.76471 35.7818C4.51252 35.3613 5.32163 35.0606 6.16258 34.8906C8.03776 36.9814 9.9051 39.0918 11.7894 41.1826C11.9738 41.4068 12.0727 41.689 12.0686 41.9792C12.0646 42.2694 11.9578 42.5488 11.7672 42.7677C11.1138 42.7677 10.4905 42.539 9.86198 42.3927C7.58302 41.8608 5.29491 41.3747 3.02378 40.8128C2.77032 40.764 2.51179 40.7469 2.25411 40.7618Z" fill="#EBE9EB"/>
<path d="M14.8634 41.7204C14.3015 40.283 13.6625 38.8835 13.1869 37.4173C12.5975 35.6514 12.2031 33.8264 12.0108 31.9747C11.7338 29.0594 12.0984 26.225 12.9007 23.4286C13.115 22.6811 13.3633 21.9428 13.5946 21.2071C14.248 20.9196 14.917 21.0359 15.5848 21.1326C15.8095 21.3822 15.6253 21.624 15.5521 21.8553C15.0059 23.5645 14.5381 25.292 14.3015 27.0822C13.8541 30.3714 14.1584 33.7191 15.1914 36.8737C15.3443 37.3454 15.624 37.7884 15.5534 38.3216C15.9128 39.4976 16.4838 40.5914 16.9137 41.7413C16.2305 41.7762 15.5458 41.7692 14.8634 41.7204Z" fill="#F66672"/>
<path d="M48.704 14.5366H46.4969C47.7749 15.0684 48.0794 15.9989 48.014 17.1396C47.9827 17.6741 48.0075 18.2125 48.0075 18.7496L37.956 18.7678C37.956 17.8453 37.8253 16.9136 38.0253 16.0015C38.1134 15.5836 38.3441 15.2093 38.6779 14.9428C39.0116 14.6763 39.4277 14.5341 39.8547 14.5405C41.219 14.5288 42.5845 14.5405 43.95 14.5405C45.3613 14.5275 46.7726 14.4935 48.1852 14.4739C48.359 14.4647 48.5446 14.4177 48.704 14.5366Z" fill="#FEDF7D"/>
<path d="M39.1973 31.3962L39.4077 31.361C40.4753 31.0682 41.5612 31.2303 42.6392 31.2303C42.6969 31.2277 42.7541 31.2423 42.8036 31.272C42.8531 31.3017 42.8927 31.3454 42.9176 31.3975C43.452 32.4717 43.963 33.5524 44.1433 34.7572C44.3883 36.293 44.3439 37.861 44.0126 39.3804C43.8114 39.3138 43.7813 39.1191 43.716 38.961C43.4148 38.2242 43.0057 37.5363 42.502 36.9198C42.4145 36.8127 42.2838 36.7134 42.3518 36.5396C42.5177 35.9241 42.2407 35.3805 42.0643 34.8238C41.9924 34.5938 41.8434 34.39 41.7493 34.1705C41.3717 33.2714 40.6334 32.9356 39.7291 32.933C34.9011 32.9243 30.0731 32.9243 25.2452 32.933C24.9838 32.4403 25.0099 31.9438 25.2269 31.4446C25.4015 31.4069 25.581 31.3972 25.7587 31.4158H38.6693C38.8455 31.4266 39.0224 31.42 39.1973 31.3962Z" fill="#FEC169"/>
<path d="M26.1836 11.5965L26.509 11.4266C26.8513 11.1444 27.1976 10.8699 27.6628 10.8281C28.2339 11.3247 28.9055 11.6867 29.4413 12.2394C30.5658 13.4131 31.4347 14.8071 31.9934 16.3334C32.6962 18.2309 33.1248 20.2188 33.2662 22.2373C33.3184 22.9025 33.3184 23.5624 33.3406 24.2262C33.0388 24.4562 32.6873 24.3673 32.3527 24.3699C31.949 24.3699 31.5412 24.4196 31.1401 24.3242C31.081 24.3012 31.0298 24.2617 30.9924 24.2105C30.9702 21.3919 30.573 18.6346 29.5053 16.012C28.8742 14.457 27.9987 13.0352 26.7311 11.8905C26.581 11.7414 26.3908 11.6393 26.1836 11.5965Z" fill="#D9D7DA"/>
<path d="M27.6625 10.8288C27.2823 11.0366 26.9399 11.3162 26.5087 11.426C26.3872 11.3123 26.5218 11.2626 26.5714 11.196C27.3853 10.1136 27.874 8.82179 27.9801 7.47175C28.1421 5.53123 27.5423 3.87036 26.2068 2.52049C25.1392 1.43981 23.8024 0.821723 22.2304 0.850471C21.9939 0.850471 21.7417 0.93541 21.5195 0.775987C24.7237 -1.14754 28.968 0.671447 29.7951 4.39828C30.3584 6.92553 29.7011 9.12609 27.6625 10.8288Z" fill="#F66672"/>
<path d="M42.344 36.5462C43.0696 37.3815 43.6329 38.345 44.0048 39.3871C44.1654 39.9979 44.2799 40.6199 44.3472 41.2479C44.3903 41.6098 44.3015 41.7706 43.9212 41.7536C43.4991 41.7379 43.0757 41.7536 42.6537 41.7536C42.0878 41.9378 41.5246 41.994 40.9693 41.717C41.2306 41.2688 41.0202 40.7957 40.9327 40.3854C40.3237 37.5472 38.7308 35.5178 35.9187 34.5508C35.7397 34.4894 35.5267 34.475 35.396 34.3051C37.705 33.8451 39.7631 34.3927 41.5887 35.8536C41.8579 36.0666 42.0944 36.3149 42.344 36.5462Z" fill="#F66672"/>
<path d="M40.9693 41.7188L42.6537 41.7553C42.459 44.1219 41.3039 45.8232 39.1399 46.8255C39.0351 46.8648 38.9277 46.8966 38.8184 46.9209C38.7283 46.6439 38.9204 46.4583 39.0445 46.2584C39.4423 45.6401 39.7161 44.9504 39.8508 44.2277C39.9475 43.688 39.9069 43.6397 39.3437 43.6384C37.0334 43.6384 34.7231 43.6384 32.418 43.6384C32.1566 43.6384 31.8953 43.6697 31.664 43.5077C31.3765 42.985 31.319 42.397 31.272 41.8089C31.4471 41.6782 31.6496 41.737 31.8404 41.7357C34.8799 41.727 37.9229 41.7214 40.9693 41.7188Z" fill="#5D5360"/>
<path d="M31.6523 43.5007C34.339 43.5007 37.027 43.5007 39.715 43.4824C40.0704 43.4824 40.107 43.6288 40.0612 43.9359C39.9057 45.0414 39.4157 46.0018 38.8185 46.9192C35.9607 47.9842 32.5605 46.3612 31.6523 43.5007Z" fill="#6F6571"/>
<path d="M8.4339 46.5362C5.50156 47.3738 2.23601 44.9367 2.253 41.9221C2.40981 41.7822 2.58752 41.8293 2.76132 41.8685C5.02852 42.3794 7.2905 42.9139 9.5564 43.4222C10.1418 43.5529 10.2032 43.7045 10.0085 44.2873C9.70667 45.1942 9.11472 45.8946 8.4339 46.5362Z" fill="#6F6571"/>
<path d="M23.6599 16.204L24.6322 15.3951C25.441 14.7182 26.3401 14.6607 27.1842 15.2318C27.3045 16.0014 26.9948 16.6261 26.4198 17.0743C25.113 18.0922 23.6835 18.9325 22.2839 19.8184C22.1144 19.9169 21.9207 19.9663 21.7247 19.9609C20.9136 19.9687 20.1025 19.9687 19.2915 19.9609C19.1138 19.9609 18.9295 19.953 18.8093 19.7832C18.7374 19.2984 18.5323 18.7966 18.9844 18.3771C19.677 18.3353 20.3696 18.2948 21.0608 18.2464C21.2548 18.2352 21.4392 18.1582 21.5835 18.0282C22.2761 17.4127 22.9687 16.8077 23.6599 16.204Z" fill="#FE8085"/>
<path d="M8.43395 46.5366C8.30327 46.2962 8.55155 46.2374 8.65217 46.1446C9.21868 45.6041 9.65019 44.9381 9.91188 44.2001C10.0426 43.863 10.0622 43.6657 9.59564 43.5638C7.2435 43.0411 4.89136 42.4883 2.53922 41.946C2.44271 41.9322 2.3453 41.9256 2.24781 41.9264C2.11714 41.5344 2.28832 41.1515 2.24781 40.7647C2.34843 40.5217 2.51831 40.5687 2.72608 40.617C5.75599 41.314 8.78807 42.007 11.8223 42.6961C11.9648 42.619 12.0589 42.6712 12.1229 42.8071C11.7936 44.5935 10.1798 46.2243 8.43395 46.5366Z" fill="#5D5360"/>
<path d="M12.1297 42.8042L11.8291 42.6931C12.0147 42.0397 11.9598 41.5014 11.4227 40.9421C10.1787 39.6523 9.03662 38.2659 7.84617 36.9251C7.41625 36.4403 6.97065 35.9699 6.52767 35.4982C6.3591 35.3204 6.18269 35.1519 6.16309 34.8905C6.7472 34.8905 7.33132 34.6632 7.91543 34.8827C8.5688 35.5962 9.23916 36.3031 9.88731 37.0231C10.9066 38.1574 11.9141 39.293 12.932 40.4311C13.3241 40.8663 13.703 41.3053 14.0872 41.7379C14.1277 42.1299 14.0232 42.5049 13.9853 42.8878C13.9591 43.14 13.8376 43.2093 13.5867 43.1413C13.1006 43.0172 12.6132 42.9166 12.1297 42.8042Z" fill="#D9D7DA"/>
<path d="M42.9167 31.4038L39.4067 31.362C40.0353 31.0431 40.2313 30.5257 40.1908 29.8396C40.149 29.0138 40.1803 28.1827 40.1803 27.3568C40.8206 27.217 41.4701 27.3006 42.1156 27.3006C42.7612 27.3006 43.438 27.217 44.0953 27.3542V29.9755C44.0953 30.8393 43.7569 31.2483 42.9167 31.4038Z" fill="#5D5360"/>
<path d="M11.9376 21.1801C11.9062 21.1801 11.8762 21.1893 11.8448 21.1919C11.3574 21.1919 10.8687 21.1618 10.3825 21.1919C10.0127 21.2115 9.95916 21.0416 9.96308 20.728C9.97615 19.5911 9.96308 18.4529 9.96308 17.3148C9.96308 16.6875 10.129 16.5595 10.738 16.7529C11.7272 17.0652 12.7112 17.3997 13.6965 17.7277C13.9238 17.8022 14.1499 17.8845 14.3773 17.9642C14.0474 18.3255 13.8062 18.7586 13.6726 19.2292C13.539 19.6998 13.5168 20.195 13.6076 20.6757C13.6677 21.0233 13.588 21.1788 13.192 21.1566C12.7745 21.1134 12.3532 21.1213 11.9376 21.1801Z" fill="#FEDF7D"/>
<path d="M18.6816 5.75C20.5851 5.75 22.4882 5.75305 24.3908 5.75915C24.5688 5.7584 24.7467 5.77151 24.9227 5.79835C25.4114 5.88198 25.6388 6.15901 25.6361 6.67387C25.6244 8.34912 25.6361 10.0257 25.6361 11.7009C24.6051 12.0929 24.5398 12.0524 24.5398 10.9966C24.5398 10.1655 24.5398 9.3344 24.5398 8.50331C24.534 8.21212 24.5074 7.92171 24.4601 7.63433C24.3947 7.15736 24.136 7.01362 23.6956 7.01885C22.6045 7.0293 21.5121 7.01885 20.4209 7.01885C20.2249 7.01885 20.0289 7.03584 19.8538 6.91954C19.9178 6.57456 19.9845 6.22827 20.0472 5.88329C19.7074 5.87153 19.369 5.86238 19.0292 5.84801C18.9051 5.84278 18.764 5.88067 18.6816 5.75Z" fill="#FEDCCD"/>
<path d="M31.0958 24.2403L33.3434 24.2285C33.4772 25.2894 33.3011 26.3664 32.8364 27.3294C31.7361 28.6767 30.2307 28.7851 28.6548 28.7015C28.6626 28.5107 28.8325 28.4885 28.9527 28.4245C30.2595 27.7345 30.8357 26.6199 30.871 25.1733C30.8828 24.8571 30.7207 24.4794 31.0958 24.2403Z" fill="#F66672"/>
<path d="M11.9375 21.181C12.3295 21.0059 12.732 21.0961 13.124 21.1105C13.516 21.1248 13.567 20.9798 13.4847 20.674C13.2547 19.8351 13.5526 19.0889 13.895 18.3559C13.9852 18.1625 14.0923 17.9325 14.3837 17.9638L16.3073 18.5675C16.3334 18.7818 16.1413 18.7753 16.0263 18.8289C15.8215 18.9105 15.6415 19.044 15.504 19.2163C15.3665 19.3886 15.2763 19.5938 15.2423 19.8116C15.2143 19.9869 15.2275 20.1664 15.2808 20.3358C15.3341 20.5052 15.426 20.6599 15.5493 20.7877C15.6526 20.904 15.7924 21.0072 15.7597 21.1967C15.7428 21.2117 15.7209 21.22 15.6983 21.22C15.6757 21.22 15.6539 21.2117 15.6369 21.1967H13.5971L11.9375 21.181Z" fill="#FEC169"/>
<path d="M15.1533 19.8262C15.1625 19.0604 15.7414 18.816 16.3111 18.5652C17.2069 18.558 18.1013 18.4925 18.9886 18.3691C18.7612 18.8435 18.9154 19.344 18.8867 19.8314L18.8135 19.8941C18.4032 20.0496 17.9759 19.9686 17.5564 19.9777C16.9553 19.9908 16.3529 19.9856 15.7505 19.9777C15.5375 19.9751 15.318 19.9934 15.1533 19.8262Z" fill="#FEEBE3"/>
<path d="M20.9446 34.9792C20.9681 33.0478 20.8453 31.1138 21.0282 29.1864C21.1968 27.4105 21.7822 25.8346 23.3921 24.8258C23.9266 24.4899 24.525 24.354 25.1275 24.2194L30.9921 24.2129L31.0928 24.2403C30.9255 24.5108 31 24.8101 30.9987 25.0963C30.9987 26.8055 30.2617 28.0351 28.6583 28.7016C27.9409 28.7081 27.2209 28.7146 26.5087 28.7251C25.7717 28.7342 25.428 29.0609 25.3117 29.7992C25.2404 30.3147 25.2146 30.8355 25.2346 31.3556C25.2647 31.3791 25.2751 31.4039 25.2647 31.4261C25.2542 31.4483 25.2438 31.4614 25.2346 31.4614C25.2346 31.9519 25.2346 32.4423 25.2346 32.9328C25.2268 33.6202 25.2185 34.3071 25.2098 34.9935C25.066 35.1242 24.8844 35.1334 24.7067 35.1347C23.6169 35.1425 22.5279 35.1425 21.4398 35.1347C21.2621 35.1321 21.0792 35.1268 20.9446 34.9792Z" fill="#FE8085"/>
<path d="M20.9445 34.9785L25.2123 34.9929C25.2123 35.888 25.2215 36.7818 25.2306 37.6769C25.2306 38.1016 25.0333 38.3068 24.6086 38.3055C22.51 38.3003 20.4113 38.2968 18.3127 38.295C18.2856 37.8737 18.3199 37.4507 18.4146 37.0393C18.6812 35.7717 19.4836 35.1314 20.9445 34.9785Z" fill="#6F6571"/>
<path d="M24.1451 20.3843C23.2042 21.2533 22.0543 21.2441 20.8782 21.1931C20.217 21.1644 19.5532 21.184 18.8907 21.1827C18.6058 20.7358 18.6685 20.281 18.858 19.8237L18.8815 19.8341C19.6943 19.8341 20.5084 19.8145 21.3199 19.8341C21.7571 19.8664 22.1926 19.7519 22.5574 19.5088C23.7178 18.7103 24.9357 17.9955 26.0856 17.1749C26.7076 16.7306 27.0918 16.1792 27.0957 15.3951C27.0957 15.3402 27.1532 15.2854 27.1846 15.2305C28.1673 15.9805 28.2548 17.1788 27.3702 18.1158C26.7168 18.811 25.8413 19.2134 25.069 19.7518C24.7619 19.9622 24.4522 20.17 24.1451 20.3843Z" fill="#F66672"/>
<path d="M25.2349 31.4606V31.3613C29.6778 31.3613 34.1207 31.3648 38.5637 31.3718C38.7741 31.3718 38.9844 31.3914 39.1948 31.4018C39.0328 31.5181 38.8472 31.4646 38.6721 31.4646C34.1926 31.4646 29.7135 31.4633 25.2349 31.4606Z" fill="#FBC875"/>
<path d="M18.8591 19.8203C18.8696 20.2724 18.8813 20.7259 18.8918 21.1793H15.7281C15.4668 20.8422 15.1218 20.556 15.0905 20.0817C15.0905 19.9823 15.0617 19.8922 15.1493 19.8203H18.8591Z" fill="#FEDCCD"/>
</g>
<defs>
<clipPath id="clip0_2884_50316">
<rect width="50" height="47.2493" fill="white" transform="translate(0.648438)"/>
</clipPath>
</defs>
</svg>
