<svg width="31" height="30" viewBox="0 0 31 30" fill="none" xmlns="http://www.w3.org/2000/svg">
<path d="M17.2371 1.7264C16.9107 1.06512 16.2372 0.646484 15.4997 0.646484C14.7623 0.646484 14.0888 1.06512 13.7624 1.7264L10.2215 8.89985L2.30285 10.0573C1.57326 10.1639 0.967444 10.6754 0.740025 11.3768C0.512606 12.0782 0.703009 12.8479 1.23121 13.3623L6.95951 18.9417L5.60761 26.824C5.48294 27.5509 5.78179 28.2856 6.3785 28.719C6.9752 29.1525 7.76627 29.2096 8.41904 28.8663L15.4997 25.1427L22.5804 28.8663C23.2332 29.2096 24.0243 29.1525 24.621 28.719C25.2177 28.2856 25.5165 27.5509 25.3919 26.824L24.04 18.9417L29.7683 13.3623C30.2965 12.8479 30.4869 12.0782 30.2594 11.3768C30.032 10.6754 29.4262 10.1639 28.6966 10.0573L20.778 8.89985L17.2371 1.7264Z" fill="#FFC53D"/>
</svg>
