<svg width="32" height="48" viewBox="0 0 32 48" fill="none" xmlns="http://www.w3.org/2000/svg">
<path d="M30.276 19.6578L21.0619 18.3187L16.9429 9.96825C16.8304 9.73962 16.6453 9.55454 16.4167 9.44204C15.8433 9.15897 15.1465 9.39486 14.8598 9.96825L10.7409 18.3187L1.52678 19.6578C1.27274 19.6941 1.04049 19.8138 0.862663 19.9953C0.647685 20.2162 0.529222 20.5135 0.533305 20.8217C0.537388 21.13 0.663682 21.424 0.884437 21.6392L7.55097 28.1388L5.97597 37.3166C5.93903 37.5301 5.96266 37.7497 6.04417 37.9505C6.12567 38.1512 6.2618 38.3251 6.43711 38.4524C6.61241 38.5798 6.81989 38.6554 7.03601 38.6708C7.25213 38.6862 7.46824 38.6408 7.65984 38.5396L15.9014 34.2066L24.1429 38.5396C24.3679 38.6594 24.6292 38.6993 24.8796 38.6557C25.5111 38.5469 25.9356 37.9481 25.8268 37.3166L24.2518 28.1388L30.9183 21.6392C31.0998 21.4614 31.2195 21.2291 31.2558 20.9751C31.3538 20.34 30.9111 19.7521 30.276 19.6578Z" fill="#D9D9D9"/>
</svg>
