<svg width="20" height="19" viewBox="0 0 20 19" fill="none" xmlns="http://www.w3.org/2000/svg">
<path d="M18.3663 3.09127H14.9632C14.1017 3.09127 14.0653 2.98226 13.8291 2.27467L13.636 1.69426C13.3424 0.814548 12.523 0.222656 11.5955 0.222656H7.92553C6.99801 0.222656 6.17759 0.813592 5.88499 1.69426L5.69185 2.27467C5.45566 2.98321 5.41932 3.09127 4.55778 3.09127H1.15465C0.758785 3.09127 0.4375 3.41255 0.4375 3.80842C0.4375 4.20429 0.758785 4.52558 1.15465 4.52558H2.3958L3.12922 15.521C3.27074 17.6485 4.575 18.8686 6.70734 18.8686H12.8146C14.946 18.8686 16.2503 17.6485 16.3927 15.521L17.1261 4.52558H18.3663C18.7622 4.52558 19.0835 4.20429 19.0835 3.80842C19.0835 3.41255 18.7622 3.09127 18.3663 3.09127ZM7.24567 2.1475C7.34416 1.85394 7.61668 1.65696 7.92553 1.65696H11.5955C11.9043 1.65696 12.1778 1.85394 12.2753 2.1475L12.4685 2.72791C12.5105 2.85317 12.5526 2.97461 12.5985 3.09127H6.92056C6.96646 2.97366 7.0095 2.85221 7.05157 2.72791L7.24567 2.1475ZM14.9603 15.4254C14.8695 16.7956 14.1868 17.4343 12.8136 17.4343H6.70638C5.33327 17.4343 4.65149 16.7965 4.55969 15.4254L3.83298 4.52558H4.55683C4.67635 4.52558 4.7758 4.51315 4.8829 4.5055C4.91541 4.51028 4.94505 4.52558 4.97852 4.52558H14.5406C14.575 4.52558 14.6037 4.51028 14.6362 4.5055C14.7433 4.51315 14.8427 4.52558 14.9622 4.52558H15.6861L14.9603 15.4254ZM12.3901 8.58944V13.3705C12.3901 13.7663 12.0688 14.0876 11.6729 14.0876C11.277 14.0876 10.9557 13.7663 10.9557 13.3705V8.58944C10.9557 8.19358 11.277 7.87229 11.6729 7.87229C12.0688 7.87229 12.3901 8.19358 12.3901 8.58944ZM8.56524 8.58944V13.3705C8.56524 13.7663 8.24395 14.0876 7.84808 14.0876C7.45222 14.0876 7.13093 13.7663 7.13093 13.3705V8.58944C7.13093 8.19358 7.45222 7.87229 7.84808 7.87229C8.24395 7.87229 8.56524 8.19358 8.56524 8.58944Z" fill="#CF1322"/>
</svg>
