<svg width="70" height="70" viewBox="0 0 70 70" fill="none" xmlns="http://www.w3.org/2000/svg">
<path d="M66.3548 35.0006C66.3548 17.7107 52.2906 3.64648 35.0006 3.64648C17.7107 3.64648 3.64648 17.7107 3.64648 35.0006C3.64648 45.1215 8.48522 54.1108 15.9519 59.8479C15.9635 59.8595 15.9812 59.8654 15.9928 59.8771C21.2749 63.9225 27.8518 66.3548 35.0035 66.3548C42.1552 66.3548 48.7324 63.9225 54.0145 59.8771C54.0262 59.8654 54.0434 59.8595 54.0551 59.8479C61.5159 54.1108 66.3548 45.1215 66.3548 35.0006ZM8.02148 35.0006C8.02148 20.1227 20.1227 8.02148 35.0006 8.02148C49.8786 8.02148 61.9798 20.1227 61.9798 35.0006C61.9798 42.3594 59.0107 49.0358 54.2157 53.9066C52.9061 48.3621 48.7147 43.2255 39.988 43.2255H30.0133C21.2866 43.2255 17.0923 48.3621 15.7856 53.9066C10.9906 49.0358 8.02148 42.3594 8.02148 35.0006ZM19.7145 57.2082C19.8837 54.2157 21.2516 47.6005 30.0133 47.6005H39.988C48.7497 47.6005 50.1176 54.2157 50.2868 57.2082C45.9381 60.2124 40.6736 61.9798 35.0006 61.9798C29.3277 61.9798 24.0632 60.2094 19.7145 57.2082ZM35.0241 40.1048C41.0529 40.1048 45.9616 35.199 45.9616 29.1673C45.9616 23.1356 41.0529 18.2298 35.0241 18.2298C28.9954 18.2298 24.0866 23.1356 24.0866 29.1673C24.0866 35.199 28.9925 40.1048 35.0241 40.1048ZM35.0241 22.6048C38.6408 22.6048 41.5866 25.5477 41.5866 29.1673C41.5866 32.7869 38.6408 35.7298 35.0241 35.7298C31.4075 35.7298 28.4616 32.7869 28.4616 29.1673C28.4616 25.5477 31.4075 22.6048 35.0241 22.6048Z" fill="#8C8C8C"/>
</svg>
