<svg width="51" height="41" viewBox="0 0 51 41" fill="none" xmlns="http://www.w3.org/2000/svg">
<path d="M50.3265 7.43148V15.4326C50.1961 15.7742 49.8989 15.8407 49.5886 15.9032C47.5925 16.3048 46.2418 17.6776 45.9094 19.6346C45.7576 20.5875 45.9224 21.5639 46.3785 22.4142C46.8346 23.2645 47.5569 23.9418 48.4347 24.3424C48.8308 24.5303 49.2512 24.662 49.6837 24.7335C49.9719 24.7765 50.2118 24.8913 50.3265 25.1846V31.526C50.1479 32.5247 49.3852 32.7085 48.5534 32.7907C48.3604 32.8102 48.1623 32.8011 47.9693 32.8024C43.1246 32.8024 38.2807 32.8024 33.4377 32.8024C33.1653 32.8024 32.8824 32.8454 32.6255 32.7085C32.3752 32.5364 32.3843 32.2679 32.3765 32.0097C32.3674 31.6864 32.3882 31.3578 32.3648 31.0397C32.3348 30.6251 32.1157 30.3787 31.7885 30.3879C31.3974 30.3996 31.267 30.6786 31.2253 31.0019C31.2005 31.3246 31.194 31.6485 31.2057 31.9719C31.2057 32.1988 31.2057 32.4282 31.048 32.6238C30.8224 32.8402 30.5369 32.8037 30.2657 32.805C28.0876 32.805 25.9095 32.805 23.7314 32.805H2.95223C2.53015 32.8104 2.10827 32.7838 1.6902 32.7255C0.960106 32.6121 0.516832 32.2327 0.338219 31.5182C0.325136 31.3717 0.321217 31.2245 0.326485 31.0775C0.326485 23.3585 0.326485 15.639 0.326485 7.91909C0.326485 7.49798 0.304321 7.05992 0.587235 6.7053C0.737672 6.50145 0.934232 6.33611 1.16083 6.22281C1.38743 6.10951 1.63764 6.05146 1.89098 6.05342C2.83403 6.05342 3.77663 6.05342 4.71881 6.05342H22.176C22.6466 6.05342 23.1173 6.05342 23.5879 6.02344C23.9 6.11619 24.229 6.13669 24.5501 6.08341C24.8243 6.05062 25.1008 6.04059 25.3767 6.05342C32.6842 6.05342 39.9904 6.06125 47.2966 6.0456C47.7307 6.03517 48.1649 6.06385 48.6003 6.06516C49.6355 6.06907 50.0918 6.43542 50.3265 7.43148Z" fill="#FEDD8E"/>
<path d="M3.28822 34.4666C2.90883 34.245 2.49424 34.3728 2.0979 34.365C0.97798 34.3415 0.380864 33.7665 0.376953 32.6518C0.376953 32.279 0.384776 31.9061 0.389991 31.5332C0.846302 32.4315 1.65593 32.601 2.56073 32.5997H30.4114C30.6148 32.5997 30.8377 32.6636 31.0163 32.4954C31.1767 32.4667 31.2353 32.601 31.324 32.687C31.6943 33.0521 31.7999 33.0586 32.2262 32.7457C32.3266 32.6727 32.4087 32.554 32.5612 32.601C37.7267 32.601 42.893 32.601 48.0602 32.601C48.9963 32.601 49.8398 32.4524 50.3261 31.5254V33.2802C49.8907 34.1381 49.1879 34.378 48.2401 34.3728C41.4489 34.3428 34.6577 34.3571 27.8652 34.3558C27.5737 34.3424 27.2817 34.3705 26.9982 34.4393C19.3347 34.7117 11.6674 34.4836 4.00267 34.5592C3.76068 34.5783 3.51735 34.5468 3.28822 34.4666Z" fill="#F8CC7F"/>
<path d="M23.2086 19.9176C23.2086 21.8697 23.2055 23.8214 23.1994 25.7727C22.9283 26.6853 22.4798 27.0295 21.5163 27.04C20.3677 27.0517 19.2204 27.04 18.0718 27.04C17.8613 27.0609 17.6493 27.0202 17.4616 26.9226C17.4068 26.8865 17.362 26.8372 17.3313 26.7792C17.2204 26.5849 17.2413 26.3711 17.2413 26.1625C17.2413 24.3156 17.2413 22.4686 17.2413 20.6216C17.2413 20.3609 17.2152 20.1001 17.4108 19.8837C17.5946 19.7116 17.8241 19.7142 18.0522 19.7129C19.562 19.7077 21.0717 19.7077 22.5815 19.7129C22.8148 19.7168 23.0508 19.7025 23.2086 19.9176Z" fill="#61A1F4"/>
<path d="M46.909 4.50309C47.1173 5.03911 47.2885 5.58886 47.4213 6.14842C47.2753 6.29574 47.0889 6.25663 46.9129 6.25663C39.3511 6.25663 31.7894 6.25663 24.2277 6.25663C24.0217 6.25663 23.8027 6.30878 23.6084 6.18623L29.3279 4.49136C30.2262 4.24234 31.1441 4.1928 32.0736 4.19541C36.6902 4.20584 41.3068 4.19541 45.9246 4.19541C46.2845 4.20193 46.6547 4.17194 46.909 4.50309Z" fill="#F8AF67"/>
<path d="M36.5703 20.4571C36.5703 18.6884 36.5703 16.9183 36.5703 15.147C36.5703 14.6255 36.8584 14.2682 37.2652 14.2695C37.7398 14.2695 38.0331 14.5916 38.0331 15.1443C38.0331 18.6836 38.0331 22.2241 38.0331 25.766C38.0331 26.3096 37.7137 26.663 37.273 26.6434C36.8324 26.6238 36.5716 26.2862 36.5703 25.7686C36.5703 23.9981 36.5703 22.2276 36.5703 20.4571Z" fill="#FBBF7E"/>
<path d="M22.7028 15.8154C22.897 15.8154 23.0939 15.8311 23.2855 15.8324C24.4706 15.8324 24.807 16.1935 24.7444 17.3969C24.5384 18.0631 24.2933 18.2612 23.5893 18.2665C21.7249 18.2795 19.8593 18.2743 17.9949 18.2665C17.7824 18.2665 17.5712 18.256 17.4043 18.0957C17.2438 17.3412 17.2415 16.5616 17.3978 15.8063C17.7081 15.5273 18.0784 15.6433 18.4317 15.6472C19.695 15.5899 20.9596 15.6277 22.223 15.6251C22.3121 15.6186 22.4016 15.6324 22.4847 15.6653C22.5677 15.6983 22.6423 15.7496 22.7028 15.8154Z" fill="#9CC5F9"/>
<path d="M8.76932 17.3825C8.71195 16.1544 9.01312 15.8336 10.2282 15.831C10.4225 15.831 10.6193 15.8206 10.811 15.8154C10.8738 15.7516 10.949 15.7015 11.032 15.6681C11.115 15.6347 11.2039 15.6187 11.2934 15.6211C12.5567 15.6211 13.8213 15.5833 15.086 15.6433C15.3767 15.6329 15.6792 15.5599 15.9295 15.7893C16.0922 16.5429 16.0966 17.322 15.9425 18.0774C15.7678 18.2625 15.5384 18.2625 15.3102 18.2625C13.5254 18.2625 11.7419 18.273 9.95703 18.2625C9.20607 18.2521 8.99226 18.0852 8.76932 17.3825Z" fill="#9CC5F9"/>
<path d="M8.76938 17.3828C9.04969 17.9239 9.50208 18.0803 10.094 18.0725C12.0248 18.0503 13.9557 18.066 15.8865 18.0725C16.2412 18.6892 16.1473 19.3176 15.9387 19.9486C15.7288 20.1494 15.4615 20.1233 15.2047 20.1233C13.8762 20.1233 12.5489 20.1233 11.2204 20.1233C10.579 20.1233 10.5333 20.1715 10.532 20.8195C10.532 22.5031 10.532 24.1871 10.532 25.8715C10.4873 26.0921 10.4802 26.3187 10.5112 26.5416C10.532 26.8206 10.5972 27.1322 10.3039 27.3382C10.1735 26.7933 10.2465 26.2392 10.2426 25.6903C10.2304 23.9198 10.2339 22.1484 10.253 20.3762C10.253 20.0333 10.1813 19.8951 9.80064 19.886C9.11618 19.8678 8.76547 19.4727 8.75765 18.7974C8.75113 18.3254 8.76416 17.8535 8.76938 17.3828Z" fill="#7EB6F5"/>
<path d="M17.4614 18.0673C19.4405 18.0673 21.4222 18.0438 23.4013 18.0764C24.0101 18.0868 24.4338 17.8874 24.7441 17.3906C24.7441 17.7961 24.7598 18.2016 24.7585 18.6057C24.7585 19.5092 24.4051 19.8677 23.499 19.899C23.4026 19.899 23.3048 19.9108 23.2083 19.9173H17.4588L17.3832 19.8612C17.2019 19.2524 17.095 18.6435 17.4614 18.0673Z" fill="#7EB6F5"/>
<path d="M18.4227 12.7979C18.7135 12.2161 19.1484 11.7184 19.686 11.3521C20.4852 10.8306 21.4656 11.0353 22.0419 11.8279C22.5047 12.4787 22.7419 13.2631 22.7172 14.0613C22.6429 14.1354 22.5529 14.1921 22.4539 14.227C22.3549 14.262 22.2493 14.2744 22.1449 14.2633C21.0827 14.2686 20.0202 14.2686 18.9572 14.2633C18.7624 14.2786 18.5686 14.2235 18.4109 14.1082C18.1424 13.6688 18.1189 13.2321 18.4227 12.7979Z" fill="#FE4D54"/>
<path d="M10.7564 14.2452C10.7532 13.5286 10.917 12.8211 11.2349 12.1788C11.8711 10.9441 13.1761 10.7055 14.1944 11.6416C14.5549 11.9472 14.8408 12.3311 15.0301 12.7642C15.2517 13.124 15.1826 13.5203 15.1279 13.8945C15.0757 14.24 14.7576 14.2569 14.476 14.2622C13.4917 14.2752 12.506 14.27 11.5217 14.2622C11.2609 14.2622 11.0028 14.3417 10.7564 14.2452Z" fill="#FE4D54"/>
<path d="M41.6448 20.4928C41.6448 21.4184 41.6448 22.3441 41.6448 23.2698C41.6448 23.7665 41.3319 24.112 40.9055 24.1068C40.4792 24.1016 40.1872 23.7743 40.1846 23.288C40.1768 21.4045 40.1768 19.5206 40.1846 17.6363C40.1846 17.1252 40.5079 16.7849 40.9355 16.7993C41.3632 16.8136 41.6448 17.1539 41.6461 17.6663C41.6474 18.6089 41.6448 19.5554 41.6448 20.4928Z" fill="#FBBF7E"/>
<path d="M17.4604 26.8425C18.6937 26.8425 19.9284 26.8021 21.1591 26.8582C22.0887 26.9012 22.7666 26.5974 23.1995 25.7734C23.1995 26.2415 23.2256 26.7108 23.2125 27.1789C23.189 27.9859 22.6089 28.613 21.8071 28.6234C20.3521 28.6456 18.8971 28.6234 17.4408 28.6156C17.154 28.171 17.1631 27.2493 17.4604 26.8425Z" fill="#4B92E1"/>
<path d="M10.3066 27.3361L10.3327 25.8668C10.527 25.8394 10.6235 25.9789 10.7317 26.0975C10.8877 26.2749 11.0808 26.4159 11.2973 26.5105C11.5138 26.6052 11.7484 26.6511 11.9846 26.6451C13.058 26.6451 14.131 26.6451 15.2035 26.6451C15.4304 26.6451 15.6598 26.6334 15.8684 26.7546C15.9213 26.7875 15.9659 26.8321 15.9988 26.885C16.1148 27.4665 16.2309 28.0479 15.9219 28.6098C14.5177 28.6098 13.1136 28.6372 11.7108 28.619C10.9572 28.6138 10.4383 28.1001 10.3066 27.3361Z" fill="#4B92E1"/>
<path d="M10.7562 14.2447C10.8866 14.027 11.1122 14.0635 11.3195 14.0635C12.352 14.0635 13.3846 14.0348 14.4159 14.0752C14.9243 14.0948 15.0808 13.9162 15.0221 13.439C15.0065 13.2142 15.0065 12.9885 15.0221 12.7637L15.1121 12.8067C15.4471 13.1978 15.2737 13.6437 15.2815 14.0726C15.3126 14.476 15.3209 14.8808 15.3063 15.2851C15.3149 15.3824 15.3016 15.4803 15.2673 15.5717C15.233 15.6631 15.1786 15.7456 15.1082 15.8131H10.8058C10.7166 15.2952 10.6999 14.7673 10.7562 14.2447Z" fill="#E94955"/>
<path d="M18.4354 14.0645H22.7169C22.8577 14.6498 22.7038 15.2378 22.7025 15.8167C21.2684 15.8506 19.846 15.8571 18.4171 15.8167C18.1042 15.2626 18.1629 14.6968 18.3597 14.1218L18.4354 14.0645Z" fill="#E94955"/>
<path d="M15.1108 14.0661C15.1108 13.6463 15.1108 13.2265 15.1108 12.8067L18.4211 12.7988C18.4211 13.2199 18.4302 13.6424 18.4341 14.0635H18.408C18.3424 14.1347 18.2612 14.1898 18.1707 14.2244C18.0802 14.259 17.9829 14.2722 17.8865 14.2629C17.1399 14.269 16.3924 14.269 15.6441 14.2629C15.5462 14.2711 15.4477 14.2577 15.3556 14.2237C15.2635 14.1897 15.1799 14.1359 15.1108 14.0661Z" fill="#CB353E"/>
<path d="M32.5483 8.94073C32.5644 9.21609 32.5623 9.49223 32.5418 9.7673C32.4831 10.1871 32.2289 10.4479 31.7869 10.4479C31.696 10.4544 31.6046 10.4426 31.5183 10.4131C31.432 10.3836 31.3524 10.3371 31.2845 10.2763C31.2165 10.2155 31.1614 10.1416 31.1225 10.0591C31.0837 9.97661 31.0618 9.88713 31.0582 9.79598C31.008 9.22997 31.008 8.66062 31.0582 8.0946C31.096 7.68 31.3906 7.42056 31.8313 7.44272C32.2472 7.45837 32.4897 7.71651 32.5418 8.11546C32.5615 8.39013 32.5637 8.66578 32.5483 8.94073Z" fill="#FE4E54"/>
<path d="M32.5524 18.0043C32.5668 18.2793 32.5642 18.5549 32.5446 18.8295C32.4911 19.248 32.2499 19.5166 31.8054 19.5244C31.7108 19.5333 31.6154 19.5224 31.5252 19.4926C31.4349 19.4629 31.3519 19.4147 31.2811 19.3513C31.2103 19.2879 31.1535 19.2106 31.114 19.1242C31.0745 19.0377 31.0534 18.9441 31.0518 18.8491C31.0062 18.2999 31.0062 17.7478 31.0518 17.1986C31.0547 17.1036 31.0768 17.0102 31.117 16.924C31.1571 16.8379 31.2143 16.7608 31.2852 16.6975C31.3561 16.6342 31.4391 16.586 31.5292 16.5558C31.6193 16.5256 31.7146 16.5141 31.8093 16.5219C32.2382 16.531 32.4937 16.8061 32.5485 17.2259C32.5661 17.485 32.5674 17.745 32.5524 18.0043Z" fill="#FE4E54"/>
<path d="M32.5537 27.1177C32.5674 27.3783 32.5652 27.6395 32.5472 27.8999C32.4951 28.3158 32.2643 28.5857 31.8184 28.6066C31.7198 28.6156 31.6204 28.604 31.5264 28.5727C31.4325 28.5414 31.346 28.491 31.2725 28.4246C31.199 28.3582 31.1401 28.2773 31.0994 28.187C31.0587 28.0967 31.0372 27.999 31.0362 27.8999C31.0042 27.3815 31.0042 26.8616 31.0362 26.3432C31.0443 26.148 31.1276 25.9634 31.2686 25.8281C31.4096 25.6927 31.5975 25.6172 31.793 25.6172C31.9884 25.6172 32.1763 25.6927 32.3174 25.8281C32.4584 25.9634 32.5417 26.148 32.5498 26.3432C32.5733 26.604 32.5498 26.8647 32.5498 27.1255L32.5537 27.1177Z" fill="#FE4E54"/>
<path d="M32.5523 13.5183C32.568 13.7788 32.5659 14.0402 32.5458 14.3005C32.4885 14.7216 32.2264 14.985 31.7975 14.9902C31.615 15.0027 31.435 14.9426 31.2968 14.8229C31.1585 14.7032 31.0732 14.5337 31.0596 14.3513C30.9893 13.7886 30.9893 13.2192 31.0596 12.6565C31.1065 12.238 31.3712 11.989 31.8223 12.0046C32.2733 12.0202 32.5028 12.2862 32.5537 12.7021C32.5706 12.9769 32.5706 13.2525 32.5537 13.5274L32.5523 13.5183Z" fill="#FE4D54"/>
<path d="M32.5593 22.6092C32.5593 22.836 32.5723 23.0642 32.5593 23.2897C32.5267 23.75 32.1955 24.0785 31.7887 24.072C31.5914 24.0661 31.4037 23.9848 31.2643 23.8449C31.1249 23.7051 31.0443 23.5171 31.0391 23.3197C31.0104 22.8178 31.0104 22.3146 31.0391 21.8126C31.0691 21.3263 31.3846 21.0577 31.8305 21.0708C32.2763 21.0838 32.5358 21.3811 32.5593 21.8778C32.571 22.1203 32.5593 22.3628 32.5593 22.6066V22.6092Z" fill="#FE4D54"/>
<path d="M32.5615 32.593C32.0048 33.3935 31.4338 33.353 31.0166 32.4873C31.0166 32.0024 31.0166 31.5187 31.027 31.035C31.044 30.4509 31.3399 30.1302 31.8249 30.1471C32.2851 30.1641 32.5524 30.4822 32.5602 31.0441C32.5668 31.5643 32.5615 32.0806 32.5615 32.593Z" fill="#FE4D54"/>
<path d="M15.915 28.6152L15.9346 26.8356C15.9677 26.7873 16.0125 26.7482 16.065 26.7222C16.5291 26.6348 16.9971 26.5175 17.4222 26.8525L17.4561 26.8447L17.4365 28.6178C16.9315 28.6844 16.4198 28.6835 15.915 28.6152Z" fill="#BF2232"/>
<path d="M21.056 36.2106C19.6988 36.7048 18.3025 37.0737 16.9219 37.4935C13.613 38.5018 10.3019 39.5013 6.98862 40.4921C5.78265 40.8559 5.04864 40.4569 4.69402 39.2432C4.39025 38.2002 4.09169 37.1572 3.79053 36.1142C3.84223 36.0628 3.90524 36.0242 3.97452 36.0016C4.0438 35.979 4.11741 35.9729 4.18947 35.9838C9.52441 36.0333 14.858 35.9903 20.193 36.0099C20.4941 36.0099 20.824 35.9225 21.056 36.2106Z" fill="#FBBF7E"/>
<path d="M46.9093 4.50293C46.4804 4.41711 46.0425 4.38427 45.6056 4.40515C41.2337 4.40515 36.8622 4.40515 32.4912 4.40515C31.4377 4.40515 30.383 4.34127 29.3335 4.48729C31.0949 3.94884 32.8627 3.39996 34.6306 2.86803C37.6136 1.95541 40.5966 1.07017 43.5769 0.162759C44.942 -0.253137 45.6408 0.109305 46.0306 1.46651C46.32 2.47691 46.616 3.49122 46.9093 4.50293Z" fill="#FBBF7E"/>
<path d="M21.056 36.2107C15.7541 36.2107 10.4492 36.2107 5.1412 36.2107C4.69003 36.2331 4.2378 36.2007 3.79443 36.1142C3.58233 35.5806 3.41318 35.0308 3.28857 34.4702C3.43199 34.3203 3.61973 34.3607 3.79312 34.3607H26.5318C26.6908 34.3607 26.859 34.3242 26.9985 34.4441C25.0259 35.0439 23.0599 35.6866 21.056 36.2107Z" fill="#F8AF67"/>
<path d="M17.4267 26.8495L15.9808 26.8326C15.797 26.6474 15.8426 26.4101 15.8426 26.1885C15.8426 24.3563 15.8426 22.525 15.8426 20.6945C15.8426 20.3673 15.7292 19.937 16.1373 19.8002C16.5453 19.6633 17.0225 19.5772 17.4227 19.9175H17.4579C17.4527 21.9713 17.4466 24.0243 17.4397 26.0764C17.4397 26.3358 17.4306 26.5966 17.4267 26.8495Z" fill="#CB353E"/>
<path d="M15.1107 14.0664H18.4105C18.4105 14.6487 18.4105 15.2311 18.4105 15.8134L17.46 15.8408C16.949 16.0422 16.3805 16.0422 15.8695 15.8408L15.1016 15.8173C15.1076 15.2315 15.1107 14.6479 15.1107 14.0664Z" fill="#C02131"/>
<path d="M15.8765 15.8359H17.4671C17.4671 16.5791 17.4671 17.3222 17.4671 18.0653C17.4541 18.6816 17.4415 19.2983 17.4293 19.9154C15.9952 19.9036 15.9952 19.9036 15.9952 21.3495C15.9952 23.1747 15.9952 25.0021 15.9952 26.8317H15.9482H15.8987C15.7031 26.6649 15.6992 26.4406 15.6992 26.2085C15.6992 24.3155 15.6992 22.4229 15.6992 20.5307C15.6992 20.3 15.7162 20.0757 15.9 19.9049C15.9437 19.2921 15.9437 18.6769 15.9 18.064C15.9403 17.3216 15.9325 16.5774 15.8765 15.8359Z" fill="#E84956"/>
<path d="M15.887 19.9083C15.9287 22.2177 15.9287 24.5266 15.887 26.8351C14.5233 26.8351 13.1595 26.8507 11.7945 26.8351C11.1114 26.8286 10.6563 26.4375 10.3343 25.8638C10.3343 24.0451 10.3421 22.2277 10.3252 20.4089C10.3252 20.0282 10.436 19.9005 10.8232 19.9044C12.5103 19.9239 14.1986 19.9109 15.887 19.9083Z" fill="#61A1F4"/>
<path d="M15.9858 16.9487V16.8509C15.9858 15.8223 15.9858 15.8262 17.0106 15.907C17.2609 15.9279 17.3574 16.023 17.3535 16.2655C17.3535 16.7531 17.3535 17.2407 17.3535 17.7283C17.3535 17.9487 17.2635 18.0647 17.0367 18.0569C17.0202 18.0556 17.0036 18.0556 16.9871 18.0569C15.9858 18.1364 15.9858 18.1364 15.9858 16.9487Z" fill="#FD4D55"/>
</svg>
