<svg width="19" height="15" viewBox="0 0 19 15" fill="none" xmlns="http://www.w3.org/2000/svg">
<path d="M1.125 0H0.160714C0.0723214 0 0 0.0723214 0 0.160714V13.9821C0 14.0705 0.0723214 14.1429 0.160714 14.1429H1.125C1.21339 14.1429 1.28571 14.0705 1.28571 13.9821V0.160714C1.28571 0.0723214 1.21339 0 1.125 0ZM17.8594 0H16.8951C16.8067 0 16.7344 0.0723214 16.7344 0.160714V13.9821C16.7344 14.0705 16.8067 14.1429 16.8951 14.1429H17.8594C17.9478 14.1429 18.0201 14.0705 18.0201 13.9821V0.160714C18.0201 0.0723214 17.9478 0 17.8594 0ZM2.73214 11.5714H4.98214C5.07054 11.5714 5.14286 11.4991 5.14286 11.4107V0.160714C5.14286 0.0723214 5.07054 0 4.98214 0H2.73214C2.64375 0 2.57143 0.0723214 2.57143 0.160714V11.4107C2.57143 11.4991 2.64375 11.5714 2.73214 11.5714ZM9.1808 11.5714H10.1451C10.2335 11.5714 10.3058 11.4991 10.3058 11.4107V0.160714C10.3058 0.0723214 10.2335 0 10.1451 0H9.1808C9.09241 0 9.02009 0.0723214 9.02009 0.160714V11.4107C9.02009 11.4991 9.09241 11.5714 9.1808 11.5714ZM11.7121 11.5714H15.2879C15.3763 11.5714 15.4487 11.4991 15.4487 11.4107V0.160714C15.4487 0.0723214 15.3763 0 15.2879 0H11.7121C11.6237 0 11.5513 0.0723214 11.5513 0.160714V11.4107C11.5513 11.4991 11.6237 11.5714 11.7121 11.5714ZM6.58929 11.5714H7.55357C7.64196 11.5714 7.71429 11.4991 7.71429 11.4107V0.160714C7.71429 0.0723214 7.64196 0 7.55357 0H6.58929C6.50089 0 6.42857 0.0723214 6.42857 0.160714V11.4107C6.42857 11.4991 6.50089 11.5714 6.58929 11.5714ZM5.00223 12.8571H2.75223C2.66384 12.8571 2.59152 12.9295 2.59152 13.0179V13.9821C2.59152 14.0705 2.66384 14.1429 2.75223 14.1429H5.00223C5.09063 14.1429 5.16295 14.0705 5.16295 13.9821V13.0179C5.16295 12.9295 5.09063 12.8571 5.00223 12.8571ZM10.1652 12.8571H9.20089C9.1125 12.8571 9.04018 12.9295 9.04018 13.0179V13.9821C9.04018 14.0705 9.1125 14.1429 9.20089 14.1429H10.1652C10.2536 14.1429 10.3259 14.0705 10.3259 13.9821V13.0179C10.3259 12.9295 10.2536 12.8571 10.1652 12.8571ZM15.308 12.8571H11.7321C11.6438 12.8571 11.5714 12.9295 11.5714 13.0179V13.9821C11.5714 14.0705 11.6438 14.1429 11.7321 14.1429H15.308C15.3964 14.1429 15.4688 14.0705 15.4688 13.9821V13.0179C15.4688 12.9295 15.3964 12.8571 15.308 12.8571ZM7.57366 12.8571H6.60938C6.52098 12.8571 6.44866 12.9295 6.44866 13.0179V13.9821C6.44866 14.0705 6.52098 14.1429 6.60938 14.1429H7.57366C7.66205 14.1429 7.73438 14.0705 7.73438 13.9821V13.0179C7.73438 12.9295 7.66205 12.8571 7.57366 12.8571Z" fill="#595959"/>
</svg>
