<svg width="17" height="13" viewBox="0 0 17 13" fill="none" xmlns="http://www.w3.org/2000/svg">
<path d="M16.1387 4.16766C15.0881 3.10642 13.8409 2.2646 12.4682 1.69026C11.0956 1.11592 9.62441 0.820312 8.13867 0.820313C6.65293 0.820313 5.18175 1.11592 3.8091 1.69026C2.43646 2.2646 1.18925 3.10642 0.138672 4.16766L1.46111 5.50353C2.33802 4.61772 3.37907 3.91506 4.5248 3.43566C5.67054 2.95626 6.89853 2.70952 8.13867 2.70952C9.37881 2.70952 10.6068 2.95626 11.7525 3.43566C12.8983 3.91506 13.9393 4.61772 14.8162 5.50353L16.1387 4.16766Z" fill="#8C8C8C"/>
<path d="M13.472 6.8614C12.7716 6.15391 11.9401 5.59269 11.0251 5.2098C10.11 4.82691 9.12916 4.62984 8.13867 4.62984C7.14818 4.62984 6.16739 4.82691 5.25229 5.2098C4.3372 5.5927 3.50572 6.15391 2.80534 6.8614L4.19494 8.26512C4.71284 7.74196 5.32767 7.32697 6.00434 7.04384C6.68101 6.76071 7.40625 6.61498 8.13867 6.61498C8.87109 6.61498 9.59634 6.76071 10.273 7.04384C10.9497 7.32697 11.5645 7.74196 12.0824 8.26512L13.472 6.8614Z" fill="#8C8C8C"/>
<path d="M10.8053 9.55514C10.4551 9.2014 10.0394 8.92079 9.58186 8.72934C9.12431 8.5379 8.63392 8.43936 8.13867 8.43936C7.64343 8.43936 7.15303 8.5379 6.69548 8.72934C6.23793 8.92079 5.8222 9.2014 5.472 9.55514L8.13867 12.2489L10.8053 9.55514Z" fill="#8C8C8C"/>
</svg>
